{
  "source": "C:\\Users\\Peter\\Desktop\\stuff\\MIUN\\quantitative_research\\video_compression\\videos\\BVI-HD\\FishAndRock_1920x1080_30fps.mp4",
  "output": "C:\\Users\\Peter\\Desktop\\stuff\\MIUN\\quantitative_research\\video_compression\\compressed_videos\\BVI-HD\\hevc\\12\\FishAndRock_1920x1080_30fps_hevc.mp4",
  "codec": "hevc",
  "ok": "Input #0, mov,mp4,m4a,3gp,3g2,mj2, from 'C:\\Users\\Peter\\Desktop\\stuff\\MIUN\\quantitative_research\\video_compression\\videos\\BVI-HD\\FishAndRock_1920x1080_30fps.mp4':\n  Metadata:\n    major_brand     : isom\n    minor_version   : 512\n    compatible_brands: isomiso2avc1mp41\n    encoder         : Lavf54.28.101\n  Duration: 00:00:05.00, start: 0.000000, bitrate: 251564 kb/s\n  Stream #0:0[0x1](und): Video: h264 (High 4:4:4 Predictive) (avc1 / 0x31637661), yuv420p(progressive), 1920x1080, 251561 kb/s, 30 fps, 30 tbr, 30 tbn (default)\n    Metadata:\n      handler_name    : VideoHandler\n      vendor_id       : [0][0][0][0]\n[out#0/mp4 @ 00000249102c1800] Codec AVOption b:a (set bitrate (in bits/s)) has not been used for any stream. The most likely reason is either wrong type (e.g. a video option with no video streams) or that it is a private option of some decoder which was not actually used for any stream.\nStream mapping:\n  Stream #0:0 -> #0:0 (h264 (native) -> hevc (libx265))\nPress [q] to stop, [?] for help\n[libx265 @ 0000024910e402c0] Unknown option: \"aq-mode.\nx265 [info]: HEVC encoder version 4.1+190-8f11c33ac\nx265 [info]: build info [Windows][GCC 15.1.0][64 bit] 10bit\nx265 [info]: using cpu capabilities: MMX2 SSE2Fast LZCNT SSSE3 SSE4.2 AVX FMA3 BMI2 AVX2\nx265 [info]: Main 10 profile, Level-4 (Main tier)\nx265 [info]: Thread pool created using 12 threads\nx265 [info]: Slices                              : 1\nx265 [info]: frame threads / pool features       : 3 / wpp(17 rows)\nx265 [info]: Coding QT: max CU size, min CU size : 64 / 8\nx265 [info]: Residual QT: max TU size, max depth : 32 / 1 inter / 1 intra\nx265 [info]: ME / range / subpel / merge         : star / 57 / 3 / 3\nx265 [info]: Keyframe min / max / scenecut / bias  : 25 / 250 / 40 / 5.00 \nx265 [info]: Lookahead / bframes / badapt        : 25 / 4 / 2\nx265 [info]: b-pyramid / weightp / weightb       : 1 / 1 / 0\nx265 [info]: References / ref-limit  cu / depth  : 4 / on / on\nx265 [info]: AQ: mode / str / qg-size / cu-tree  : 2 / 1.0 / 32 / 1\nx265 [info]: Rate Control / qCompress            : ABR-12000 kbps / 0.60\nx265 [info]: VBV/HRD buffer / max-rate / init    : 12000 / 12000 / 0.750\nx265 [info]: tools: rect limit-modes rd=4 psy-rd=2.00 rdoq=2 psy-rdoq=1.00\nx265 [info]: tools: rskip mode=1 signhide tmvp strong-intra-smoothing lslices=4\nx265 [info]: tools: deblock sao dhdr10-info\nOutput #0, mp4, to 'C:\\Users\\Peter\\Desktop\\stuff\\MIUN\\quantitative_research\\video_compression\\compressed_videos\\BVI-HD\\hevc\\12\\FishAndRock_1920x1080_30fps_hevc.mp4':\n  Metadata:\n    major_brand     : isom\n    minor_version   : 512\n    compatible_brands: isomiso2avc1mp41\n    encoder         : Lavf62.3.100\n  Stream #0:0(und): Video: hevc (hev1 / 0x31766568), yuv420p10le(tv, progressive), 1920x1080, q=2-31, 12000 kb/s, 30 fps, 15360 tbn (default)\n    Metadata:\n      encoder         : Lavc62.11.100 libx265\n      handler_name    : VideoHandler\n      vendor_id       : [0][0][0][0]\n    Side data:\n      cpb: bitrate max/min/avg: 12000000/0/12000000 buffer size: 12000000 vbv_delay: N/A\nframe=    0 fps=0.0 q=0.0 size=       0KiB time=N/A bitrate=N/A speed=N/A elapsed=0:00:00.51    \nframe=    0 fps=0.0 q=0.0 size=       0KiB time=N/A bitrate=N/A speed=N/A elapsed=0:00:01.07    \nframe=    0 fps=0.0 q=0.0 size=       0KiB time=N/A bitrate=N/A speed=N/A elapsed=0:00:01.59    \nframe=    0 fps=0.0 q=0.0 size=       0KiB time=N/A bitrate=N/A speed=N/A elapsed=0:00:02.10    \nframe=    0 fps=0.0 q=0.0 size=       0KiB time=N/A bitrate=N/A speed=N/A elapsed=0:00:02.61    \nframe=    0 fps=0.0 q=0.0 size=       0KiB time=N/A bitrate=N/A speed=N/A elapsed=0:00:03.14    \nframe=    0 fps=0.0 q=0.0 size=       0KiB time=N/A bitrate=N/A speed=N/A elapsed=0:00:03.64    \nframe=    0 fps=0.0 q=0.0 size=       0KiB time=N/A bitrate=N/A speed=N/A elapsed=0:00:04.17    \nframe=    0 fps=0.0 q=0.0 size=       0KiB time=N/A bitrate=N/A speed=N/A elapsed=0:00:04.69    \nframe=    0 fps=0.0 q=0.0 size=       0KiB time=N/A bitrate=N/A speed=N/A elapsed=0:00:05.19    \nframe=    0 fps=0.0 q=0.0 size=       0KiB time=N/A bitrate=N/A speed=N/A elapsed=0:00:05.72    \nframe=    0 fps=0.0 q=0.0 size=       0KiB time=N/A bitrate=N/A speed=N/A elapsed=0:00:06.22    \nframe=    0 fps=0.0 q=0.0 size=       0KiB time=N/A bitrate=N/A speed=N/A elapsed=0:00:06.74    \nframe=    0 fps=0.0 q=0.0 size=       0KiB time=N/A bitrate=N/A speed=N/A elapsed=0:00:07.27    \nframe=    0 fps=0.0 q=0.0 size=       0KiB time=N/A bitrate=N/A speed=N/A elapsed=0:00:07.79    \nframe=    0 fps=0.0 q=0.0 size=       0KiB time=N/A bitrate=N/A speed=N/A elapsed=0:00:08.31    \nframe=    0 fps=0.0 q=0.0 size=       0KiB time=N/A bitrate=N/A speed=N/A elapsed=0:00:08.82    \nframe=    0 fps=0.0 q=0.0 size=       0KiB time=N/A bitrate=N/A speed=N/A elapsed=0:00:09.34    \nframe=    0 fps=0.0 q=0.0 size=       0KiB time=N/A bitrate=N/A speed=N/A elapsed=0:00:09.85    \nframe=    0 fps=0.0 q=0.0 size=       0KiB time=N/A bitrate=N/A speed=N/A elapsed=0:00:10.37    \nframe=    0 fps=0.0 q=0.0 size=       0KiB time=N/A bitrate=N/A speed=N/A elapsed=0:00:10.88    \nframe=    0 fps=0.0 q=0.0 size=       0KiB time=N/A bitrate=N/A speed=N/A elapsed=0:00:11.40    \nframe=    0 fps=0.0 q=0.0 size=       0KiB time=N/A bitrate=N/A speed=N/A elapsed=0:00:11.91    \nframe=    0 fps=0.0 q=0.0 size=       0KiB time=N/A bitrate=N/A speed=N/A elapsed=0:00:12.43    \nframe=    0 fps=0.0 q=0.0 size=       0KiB time=N/A bitrate=N/A speed=N/A elapsed=0:00:12.95    \nframe=    0 fps=0.0 q=0.0 size=       0KiB time=N/A bitrate=N/A speed=N/A elapsed=0:00:13.46    \nframe=    0 fps=0.0 q=0.0 size=       0KiB time=N/A bitrate=N/A speed=N/A elapsed=0:00:13.98    \nframe=    0 fps=0.0 q=0.0 size=       0KiB time=N/A bitrate=N/A speed=N/A elapsed=0:00:14.49    \nframe=    1 fps=0.1 q=20.6 size=       0KiB time=-00:00:00.03 bitrate=N/A speed=N/A elapsed=0:00:15.01    \nframe=    1 fps=0.1 q=20.6 size=       0KiB time=-00:00:00.03 bitrate=N/A speed=N/A elapsed=0:00:15.52    \nframe=    1 fps=0.1 q=20.6 size=       0KiB time=-00:00:00.03 bitrate=N/A speed=N/A elapsed=0:00:16.04    \nframe=    1 fps=0.1 q=20.6 size=       0KiB time=-00:00:00.03 bitrate=N/A speed=N/A elapsed=0:00:16.55    \nframe=    1 fps=0.1 q=20.6 size=       0KiB time=-00:00:00.03 bitrate=N/A speed=N/A elapsed=0:00:17.07    \nframe=    1 fps=0.1 q=20.6 size=       0KiB time=-00:00:00.03 bitrate=N/A speed=N/A elapsed=0:00:17.59    \nframe=    2 fps=0.1 q=23.9 size=       0KiB time=00:00:00.00 bitrate=N/A speed=   0x elapsed=0:00:18.10    \nframe=    2 fps=0.1 q=23.9 size=       0KiB time=00:00:00.00 bitrate=N/A speed=   0x elapsed=0:00:18.62    \nframe=    2 fps=0.1 q=23.9 size=       0KiB time=00:00:00.00 bitrate=N/A speed=   0x elapsed=0:00:19.13    \nframe=    2 fps=0.1 q=23.9 size=       0KiB time=00:00:00.00 bitrate=N/A speed=   0x elapsed=0:00:19.65    \nframe=    2 fps=0.1 q=23.9 size=       0KiB time=00:00:00.00 bitrate=N/A speed=   0x elapsed=0:00:20.16    \nframe=    2 fps=0.1 q=23.9 size=       0KiB time=00:00:00.00 bitrate=N/A speed=   0x elapsed=0:00:20.68    \nframe=    3 fps=0.1 q=29.4 size=       0KiB time=00:00:00.03 bitrate=  10.6kbits/s speed=0.00157x elapsed=0:00:21.19    \nframe=    3 fps=0.1 q=29.4 size=       0KiB time=00:00:00.03 bitrate=  10.6kbits/s speed=0.00153x elapsed=0:00:21.71    \nframe=    3 fps=0.1 q=29.4 size=       0KiB time=00:00:00.03 bitrate=  10.6kbits/s speed=0.0015x elapsed=0:00:22.23    \nframe=    3 fps=0.1 q=29.4 size=       0KiB time=00:00:00.03 bitrate=  10.6kbits/s speed=0.00147x elapsed=0:00:22.74    \nframe=    4 fps=0.2 q=22.6 size=       0KiB time=00:00:00.06 bitrate=   5.3kbits/s speed=0.00287x elapsed=0:00:23.26    \nframe=    4 fps=0.2 q=22.6 size=       0KiB time=00:00:00.06 bitrate=   5.3kbits/s speed=0.0028x elapsed=0:00:23.77    \nframe=    4 fps=0.2 q=22.6 size=       0KiB time=00:00:00.06 bitrate=   5.3kbits/s speed=0.00274x elapsed=0:00:24.29    \nframe=    5 fps=0.2 q=26.0 size=     256KiB time=00:00:00.10 bitrate=20975.0kbits/s speed=0.00403x elapsed=0:00:24.81    \nframe=    5 fps=0.2 q=26.0 size=     256KiB time=00:00:00.10 bitrate=20975.0kbits/s speed=0.00395x elapsed=0:00:25.34    \nframe=    5 fps=0.2 q=26.0 size=     256KiB time=00:00:00.10 bitrate=20975.0kbits/s speed=0.00387x elapsed=0:00:25.86    \nframe=    5 fps=0.2 q=26.0 size=     256KiB time=00:00:00.10 bitrate=20975.0kbits/s speed=0.00379x elapsed=0:00:26.37    \nframe=    5 fps=0.2 q=26.0 size=     256KiB time=00:00:00.10 bitrate=20975.0kbits/s speed=0.00372x elapsed=0:00:26.89    \nframe=    5 fps=0.2 q=26.0 size=     256KiB time=00:00:00.10 bitrate=20975.0kbits/s speed=0.00365x elapsed=0:00:27.40    \nframe=    5 fps=0.2 q=26.0 size=     256KiB time=00:00:00.10 bitrate=20975.0kbits/s speed=0.00358x elapsed=0:00:27.92    \nframe=    5 fps=0.2 q=26.0 size=     256KiB time=00:00:00.10 bitrate=20975.0kbits/s speed=0.00352x elapsed=0:00:28.43    \nframe=    6 fps=0.2 q=26.6 size=     256KiB time=00:00:00.13 bitrate=15731.3kbits/s speed=0.00461x elapsed=0:00:28.95    \nframe=    6 fps=0.2 q=26.6 size=     256KiB time=00:00:00.13 bitrate=15731.3kbits/s speed=0.00453x elapsed=0:00:29.46    \nframe=    6 fps=0.2 q=26.6 size=     256KiB time=00:00:00.13 bitrate=15731.3kbits/s speed=0.00445x elapsed=0:00:29.98    \nframe=    6 fps=0.2 q=26.6 size=     256KiB time=00:00:00.13 bitrate=15731.3kbits/s speed=0.00437x elapsed=0:00:30.49    \nframe=    7 fps=0.2 q=26.9 size=     256KiB time=00:00:00.16 bitrate=12585.0kbits/s speed=0.00537x elapsed=0:00:31.01    \nframe=    7 fps=0.2 q=26.9 size=     256KiB time=00:00:00.16 bitrate=12585.0kbits/s speed=0.00529x elapsed=0:00:31.52    \nframe=    7 fps=0.2 q=26.9 size=     256KiB time=00:00:00.16 bitrate=12585.0kbits/s speed=0.0052x elapsed=0:00:32.04    \nframe=    7 fps=0.2 q=26.9 size=     256KiB time=00:00:00.16 bitrate=12585.0kbits/s speed=0.00512x elapsed=0:00:32.55    \nframe=    8 fps=0.2 q=21.2 size=     256KiB time=00:00:00.20 bitrate=10487.5kbits/s speed=0.00605x elapsed=0:00:33.07    \nframe=    8 fps=0.2 q=21.2 size=     256KiB time=00:00:00.20 bitrate=10487.5kbits/s speed=0.00595x elapsed=0:00:33.59    \nframe=    8 fps=0.2 q=21.2 size=     256KiB time=00:00:00.20 bitrate=10487.5kbits/s speed=0.00586x elapsed=0:00:34.10    \nframe=    8 fps=0.2 q=21.2 size=     256KiB time=00:00:00.20 bitrate=10487.5kbits/s speed=0.00578x elapsed=0:00:34.62    \nframe=    9 fps=0.3 q=24.2 size=     256KiB time=00:00:00.23 bitrate=8989.3kbits/s speed=0.00664x elapsed=0:00:35.13    \nframe=    9 fps=0.3 q=24.2 size=     256KiB time=00:00:00.23 bitrate=8989.3kbits/s speed=0.00654x elapsed=0:00:35.65    \nframe=    9 fps=0.2 q=24.2 size=     256KiB time=00:00:00.23 bitrate=8989.3kbits/s speed=0.00645x elapsed=0:00:36.16    \nframe=    9 fps=0.2 q=24.2 size=     256KiB time=00:00:00.23 bitrate=8989.3kbits/s speed=0.00636x elapsed=0:00:36.68    \nframe=    9 fps=0.2 q=24.2 size=     256KiB time=00:00:00.23 bitrate=8989.3kbits/s speed=0.00627x elapsed=0:00:37.19    \nframe=    9 fps=0.2 q=24.2 size=     256KiB time=00:00:00.23 bitrate=8989.3kbits/s speed=0.00619x elapsed=0:00:37.71    \nframe=   10 fps=0.3 q=26.0 size=     512KiB time=00:00:00.26 bitrate=15729.9kbits/s speed=0.00698x elapsed=0:00:38.22    \nframe=   10 fps=0.3 q=26.0 size=     512KiB time=00:00:00.26 bitrate=15729.9kbits/s speed=0.00688x elapsed=0:00:38.74    \nframe=   10 fps=0.3 q=26.0 size=     512KiB time=00:00:00.26 bitrate=15729.9kbits/s speed=0.00679x elapsed=0:00:39.26    \nframe=   10 fps=0.3 q=26.0 size=     512KiB time=00:00:00.26 bitrate=15729.9kbits/s speed=0.0067x elapsed=0:00:39.77    \nframe=   10 fps=0.2 q=26.0 size=     512KiB time=00:00:00.26 bitrate=15729.9kbits/s speed=0.00662x elapsed=0:00:40.29    \nframe=   11 fps=0.3 q=25.8 size=     512KiB time=00:00:00.30 bitrate=13982.2kbits/s speed=0.00735x elapsed=0:00:40.80    \nframe=   11 fps=0.3 q=25.8 size=     512KiB time=00:00:00.30 bitrate=13982.2kbits/s speed=0.00726x elapsed=0:00:41.32    \nframe=   11 fps=0.3 q=25.8 size=     512KiB time=00:00:00.30 bitrate=13982.2kbits/s speed=0.00717x elapsed=0:00:41.83    \nframe=   11 fps=0.3 q=25.8 size=     512KiB time=00:00:00.30 bitrate=13982.2kbits/s speed=0.00708x elapsed=0:00:42.35    \nframe=   11 fps=0.3 q=25.8 size=     512KiB time=00:00:00.30 bitrate=13982.2kbits/s speed=0.007x elapsed=0:00:42.86    \nframe=   12 fps=0.3 q=20.7 size=     512KiB time=00:00:00.33 bitrate=12584.0kbits/s speed=0.00768x elapsed=0:00:43.38    \nframe=   12 fps=0.3 q=20.7 size=     512KiB time=00:00:00.33 bitrate=12584.0kbits/s speed=0.00759x elapsed=0:00:43.89    \nframe=   13 fps=0.3 q=23.7 size=     512KiB time=00:00:00.36 bitrate=11440.0kbits/s speed=0.00826x elapsed=0:00:44.41    \nframe=   13 fps=0.3 q=23.7 size=     512KiB time=00:00:00.36 bitrate=11440.0kbits/s speed=0.00816x elapsed=0:00:44.93    \nframe=   13 fps=0.3 q=23.7 size=     512KiB time=00:00:00.36 bitrate=11440.0kbits/s speed=0.00807x elapsed=0:00:45.45    \nframe=   13 fps=0.3 q=23.7 size=     512KiB time=00:00:00.36 bitrate=11440.0kbits/s speed=0.00798x elapsed=0:00:45.96    \nframe=   13 fps=0.3 q=23.7 size=     512KiB time=00:00:00.36 bitrate=11440.0kbits/s speed=0.00788x elapsed=0:00:46.50    \nframe=   13 fps=0.3 q=23.7 size=     512KiB time=00:00:00.36 bitrate=11440.0kbits/s speed=0.0078x elapsed=0:00:47.02    \nframe=   13 fps=0.3 q=23.7 size=     512KiB time=00:00:00.36 bitrate=11440.0kbits/s speed=0.00771x elapsed=0:00:47.54    \nframe=   13 fps=0.3 q=23.7 size=     512KiB time=00:00:00.36 bitrate=11440.0kbits/s speed=0.00763x elapsed=0:00:48.05    \nframe=   14 fps=0.3 q=25.5 size=     512KiB time=00:00:00.40 bitrate=10486.6kbits/s speed=0.00823x elapsed=0:00:48.57    \nframe=   14 fps=0.3 q=25.5 size=     512KiB time=00:00:00.40 bitrate=10486.6kbits/s speed=0.00815x elapsed=0:00:49.08    \nframe=   14 fps=0.3 q=25.5 size=     512KiB time=00:00:00.40 bitrate=10486.6kbits/s speed=0.00806x elapsed=0:00:49.60    \nframe=   14 fps=0.3 q=25.5 size=     512KiB time=00:00:00.40 bitrate=10486.6kbits/s speed=0.00798x elapsed=0:00:50.12    \nframe=   14 fps=0.3 q=25.5 size=     512KiB time=00:00:00.40 bitrate=10486.6kbits/s speed=0.0079x elapsed=0:00:50.63    \nframe=   14 fps=0.3 q=25.5 size=     512KiB time=00:00:00.40 bitrate=10486.6kbits/s speed=0.00782x elapsed=0:00:51.15    \nframe=   14 fps=0.3 q=25.5 size=     512KiB time=00:00:00.40 bitrate=10486.6kbits/s speed=0.00774x elapsed=0:00:51.66    \nframe=   14 fps=0.3 q=25.5 size=     512KiB time=00:00:00.40 bitrate=10486.6kbits/s speed=0.00767x elapsed=0:00:52.18    \nframe=   14 fps=0.3 q=25.5 size=     512KiB time=00:00:00.40 bitrate=10486.6kbits/s speed=0.00759x elapsed=0:00:52.70    \nframe=   15 fps=0.3 q=25.5 size=     512KiB time=00:00:00.43 bitrate=9680.0kbits/s speed=0.00814x elapsed=0:00:53.23    \nframe=   15 fps=0.3 q=25.5 size=     512KiB time=00:00:00.43 bitrate=9680.0kbits/s speed=0.00806x elapsed=0:00:53.75    \nframe=   15 fps=0.3 q=25.5 size=     512KiB time=00:00:00.43 bitrate=9680.0kbits/s speed=0.00799x elapsed=0:00:54.26    \nframe=   15 fps=0.3 q=25.5 size=     512KiB time=00:00:00.43 bitrate=9680.0kbits/s speed=0.00791x elapsed=0:00:54.78    \nframe=   16 fps=0.3 q=20.7 size=     512KiB time=00:00:00.46 bitrate=8988.5kbits/s speed=0.00844x elapsed=0:00:55.29    \nframe=   16 fps=0.3 q=20.7 size=     512KiB time=00:00:00.46 bitrate=8988.5kbits/s speed=0.00836x elapsed=0:00:55.81    \nframe=   17 fps=0.3 q=23.3 size=     768KiB time=00:00:00.50 bitrate=12583.6kbits/s speed=0.00888x elapsed=0:00:56.31    \nframe=   17 fps=0.3 q=23.3 size=     768KiB time=00:00:00.50 bitrate=12583.6kbits/s speed=0.0088x elapsed=0:00:56.84    \nframe=   17 fps=0.3 q=23.3 size=     768KiB time=00:00:00.50 bitrate=12583.6kbits/s speed=0.00872x elapsed=0:00:57.34    \nframe=   17 fps=0.3 q=23.3 size=     768KiB time=00:00:00.50 bitrate=12583.6kbits/s speed=0.00864x elapsed=0:00:57.86    \nframe=   17 fps=0.3 q=23.3 size=     768KiB time=00:00:00.50 bitrate=12583.6kbits/s speed=0.00856x elapsed=0:00:58.39    \nframe=   17 fps=0.3 q=23.3 size=     768KiB time=00:00:00.50 bitrate=12583.6kbits/s speed=0.00849x elapsed=0:00:58.90    \nframe=   17 fps=0.3 q=23.3 size=     768KiB time=00:00:00.50 bitrate=12583.6kbits/s speed=0.00841x elapsed=0:00:59.42    \nframe=   17 fps=0.3 q=23.3 size=     768KiB time=00:00:00.50 bitrate=12583.6kbits/s speed=0.00834x elapsed=0:00:59.93    \nframe=   18 fps=0.3 q=25.7 size=     768KiB time=00:00:00.53 bitrate=11797.1kbits/s speed=0.00882x elapsed=0:01:00.45    \nframe=   18 fps=0.3 q=25.7 size=     768KiB time=00:00:00.53 bitrate=11797.1kbits/s speed=0.00875x elapsed=0:01:00.95    \nframe=   18 fps=0.3 q=25.7 size=     768KiB time=00:00:00.53 bitrate=11797.1kbits/s speed=0.00867x elapsed=0:01:01.48    \nframe=   18 fps=0.3 q=25.7 size=     768KiB time=00:00:00.53 bitrate=11797.1kbits/s speed=0.0086x elapsed=0:01:02.00    \nframe=   19 fps=0.3 q=25.5 size=     768KiB time=00:00:00.56 bitrate=11103.2kbits/s speed=0.00906x elapsed=0:01:02.52    \nframe=   19 fps=0.3 q=25.5 size=     768KiB time=00:00:00.56 bitrate=11103.2kbits/s speed=0.00899x elapsed=0:01:03.04    \nframe=   19 fps=0.3 q=25.5 size=     768KiB time=00:00:00.56 bitrate=11103.2kbits/s speed=0.00892x elapsed=0:01:03.56    \nframe=   19 fps=0.3 q=25.5 size=     768KiB time=00:00:00.56 bitrate=11103.2kbits/s speed=0.00884x elapsed=0:01:04.08    \nframe=   20 fps=0.3 q=20.4 size=     768KiB time=00:00:00.60 bitrate=10486.3kbits/s speed=0.00929x elapsed=0:01:04.58    \nframe=   20 fps=0.3 q=20.4 size=     768KiB time=00:00:00.60 bitrate=10486.3kbits/s speed=0.00921x elapsed=0:01:05.11    \nframe=   20 fps=0.3 q=20.4 size=     768KiB time=00:00:00.60 bitrate=10486.3kbits/s speed=0.00914x elapsed=0:01:05.61    \nframe=   20 fps=0.3 q=20.4 size=     768KiB time=00:00:00.60 bitrate=10486.3kbits/s speed=0.00907x elapsed=0:01:06.14    \nframe=   20 fps=0.3 q=20.4 size=     768KiB time=00:00:00.60 bitrate=10486.3kbits/s speed=0.009x elapsed=0:01:06.64    \nframe=   20 fps=0.3 q=20.4 size=     768KiB time=00:00:00.60 bitrate=10486.3kbits/s speed=0.00893x elapsed=0:01:07.18    \nframe=   20 fps=0.3 q=20.4 size=     768KiB time=00:00:00.60 bitrate=10486.3kbits/s speed=0.00886x elapsed=0:01:07.70    \nframe=   21 fps=0.3 q=24.8 size=    1024KiB time=00:00:00.63 bitrate=13245.7kbits/s speed=0.00928x elapsed=0:01:08.22    \nframe=   21 fps=0.3 q=24.8 size=    1024KiB time=00:00:00.63 bitrate=13245.7kbits/s speed=0.00921x elapsed=0:01:08.76    \nframe=   21 fps=0.3 q=24.8 size=    1024KiB time=00:00:00.63 bitrate=13245.7kbits/s speed=0.00914x elapsed=0:01:09.29    \nframe=   21 fps=0.3 q=24.8 size=    1024KiB time=00:00:00.63 bitrate=13245.7kbits/s speed=0.00907x elapsed=0:01:09.81    \nframe=   21 fps=0.3 q=24.8 size=    1024KiB time=00:00:00.63 bitrate=13245.7kbits/s speed=0.00901x elapsed=0:01:10.31    \nframe=   22 fps=0.3 q=25.7 size=    1024KiB time=00:00:00.66 bitrate=12583.4kbits/s speed=0.00941x elapsed=0:01:10.84    \nframe=   22 fps=0.3 q=25.7 size=    1024KiB time=00:00:00.66 bitrate=12583.4kbits/s speed=0.00934x elapsed=0:01:11.34    \nframe=   22 fps=0.3 q=25.7 size=    1024KiB time=00:00:00.66 bitrate=12583.4kbits/s speed=0.00928x elapsed=0:01:11.87    \nframe=   22 fps=0.3 q=25.7 size=    1024KiB time=00:00:00.66 bitrate=12583.4kbits/s speed=0.00921x elapsed=0:01:12.39    \nframe=   23 fps=0.3 q=20.6 size=    1024KiB time=00:00:00.70 bitrate=11984.2kbits/s speed=0.0096x elapsed=0:01:12.90    \nframe=   23 fps=0.3 q=20.6 size=    1024KiB time=00:00:00.70 bitrate=11984.2kbits/s speed=0.00953x elapsed=0:01:13.42    \nframe=   24 fps=0.3 q=23.6 size=    1024KiB time=00:00:00.73 bitrate=11439.5kbits/s speed=0.00992x elapsed=0:01:13.93    \nframe=   24 fps=0.3 q=23.6 size=    1024KiB time=00:00:00.73 bitrate=11439.5kbits/s speed=0.00985x elapsed=0:01:14.45    \nframe=   24 fps=0.3 q=23.6 size=    1024KiB time=00:00:00.73 bitrate=11439.5kbits/s speed=0.00978x elapsed=0:01:14.95    \nframe=   24 fps=0.3 q=23.6 size=    1024KiB time=00:00:00.73 bitrate=11439.5kbits/s speed=0.00972x elapsed=0:01:15.48    \nframe=   24 fps=0.3 q=23.6 size=    1024KiB time=00:00:00.73 bitrate=11439.5kbits/s speed=0.00965x elapsed=0:01:16.00    \nframe=   24 fps=0.3 q=23.6 size=    1024KiB time=00:00:00.73 bitrate=11439.5kbits/s speed=0.00958x elapsed=0:01:16.51    \nframe=   24 fps=0.3 q=23.6 size=    1024KiB time=00:00:00.73 bitrate=11439.5kbits/s speed=0.00952x elapsed=0:01:17.03    \nframe=   25 fps=0.3 q=25.8 size=    1024KiB time=00:00:00.76 bitrate=10942.1kbits/s speed=0.00989x elapsed=0:01:17.53    \nframe=   25 fps=0.3 q=25.8 size=    1024KiB time=00:00:00.76 bitrate=10942.1kbits/s speed=0.00982x elapsed=0:01:18.06    \nframe=   25 fps=0.3 q=25.8 size=    1024KiB time=00:00:00.76 bitrate=10942.1kbits/s speed=0.00976x elapsed=0:01:18.58    \nframe=   26 fps=0.3 q=25.8 size=    1024KiB time=00:00:00.80 bitrate=10486.2kbits/s speed=0.0101x elapsed=0:01:19.08    \nframe=   26 fps=0.3 q=25.8 size=    1024KiB time=00:00:00.80 bitrate=10486.2kbits/s speed=0.01x elapsed=0:01:19.60    \nframe=   26 fps=0.3 q=25.8 size=    1024KiB time=00:00:00.80 bitrate=10486.2kbits/s speed=0.00999x elapsed=0:01:20.11    \nframe=   26 fps=0.3 q=25.8 size=    1024KiB time=00:00:00.80 bitrate=10486.2kbits/s speed=0.00992x elapsed=0:01:20.63    \nframe=   27 fps=0.3 q=19.8 size=    1024KiB time=00:00:00.83 bitrate=10066.8kbits/s speed=0.0103x elapsed=0:01:21.14    \nframe=   27 fps=0.3 q=19.8 size=    1024KiB time=00:00:00.83 bitrate=10066.8kbits/s speed=0.0102x elapsed=0:01:21.66    \nframe=   27 fps=0.3 q=19.8 size=    1024KiB time=00:00:00.83 bitrate=10066.8kbits/s speed=0.0101x elapsed=0:01:22.19    \nframe=   27 fps=0.3 q=19.8 size=    1024KiB time=00:00:00.83 bitrate=10066.8kbits/s speed=0.0101x elapsed=0:01:22.71    \nframe=   28 fps=0.3 q=23.4 size=    1280KiB time=00:00:00.86 bitrate=12099.4kbits/s speed=0.0104x elapsed=0:01:23.23    \nframe=   28 fps=0.3 q=23.4 size=    1280KiB time=00:00:00.86 bitrate=12099.4kbits/s speed=0.0103x elapsed=0:01:23.74    \nframe=   28 fps=0.3 q=23.4 size=    1280KiB time=00:00:00.86 bitrate=12099.4kbits/s speed=0.0103x elapsed=0:01:24.26    \nframe=   28 fps=0.3 q=23.4 size=    1280KiB time=00:00:00.86 bitrate=12099.4kbits/s speed=0.0102x elapsed=0:01:24.77    \nframe=   28 fps=0.3 q=23.4 size=    1280KiB time=00:00:00.86 bitrate=12099.4kbits/s speed=0.0102x elapsed=0:01:25.29    \nframe=   28 fps=0.3 q=23.4 size=    1280KiB time=00:00:00.86 bitrate=12099.4kbits/s speed=0.0101x elapsed=0:01:25.80    \nframe=   28 fps=0.3 q=23.4 size=    1280KiB time=00:00:00.86 bitrate=12099.4kbits/s speed=0.01x elapsed=0:01:26.32    \nframe=   28 fps=0.3 q=23.4 size=    1280KiB time=00:00:00.86 bitrate=12099.4kbits/s speed=0.00998x elapsed=0:01:26.84    \nframe=   28 fps=0.3 q=23.4 size=    1280KiB time=00:00:00.86 bitrate=12099.4kbits/s speed=0.00992x elapsed=0:01:27.35    \nframe=   29 fps=0.3 q=25.6 size=    1280KiB time=00:00:00.90 bitrate=11651.2kbits/s speed=0.0102x elapsed=0:01:27.87    \nframe=   29 fps=0.3 q=25.6 size=    1280KiB time=00:00:00.90 bitrate=11651.2kbits/s speed=0.0102x elapsed=0:01:28.38    \nframe=   29 fps=0.3 q=25.6 size=    1280KiB time=00:00:00.90 bitrate=11651.2kbits/s speed=0.0101x elapsed=0:01:28.91    \nframe=   29 fps=0.3 q=25.6 size=    1280KiB time=00:00:00.90 bitrate=11651.2kbits/s speed=0.0101x elapsed=0:01:29.41    \nframe=   29 fps=0.3 q=25.6 size=    1280KiB time=00:00:00.90 bitrate=11651.2kbits/s speed=0.01x elapsed=0:01:29.93    \nframe=   30 fps=0.3 q=25.6 size=    1280KiB time=00:00:00.93 bitrate=11235.1kbits/s speed=0.0103x elapsed=0:01:30.44    \nframe=   30 fps=0.3 q=25.6 size=    1280KiB time=00:00:00.93 bitrate=11235.1kbits/s speed=0.0103x elapsed=0:01:30.96    \nframe=   31 fps=0.3 q=19.8 size=    1280KiB time=00:00:00.96 bitrate=10847.7kbits/s speed=0.0106x elapsed=0:01:31.47    \nframe=   31 fps=0.3 q=19.8 size=    1280KiB time=00:00:00.96 bitrate=10847.7kbits/s speed=0.0105x elapsed=0:01:31.99    \nframe=   31 fps=0.3 q=19.8 size=    1280KiB time=00:00:00.96 bitrate=10847.7kbits/s speed=0.0104x elapsed=0:01:32.52    \nframe=   32 fps=0.3 q=23.1 size=    1536KiB time=00:00:01.00 bitrate=12583.3kbits/s speed=0.0107x elapsed=0:01:33.04    \nframe=   32 fps=0.3 q=23.1 size=    1536KiB time=00:00:01.00 bitrate=12583.3kbits/s speed=0.0107x elapsed=0:01:33.56    \nframe=   32 fps=0.3 q=23.1 size=    1536KiB time=00:00:01.00 bitrate=12583.3kbits/s speed=0.0106x elapsed=0:01:34.07    \nframe=   32 fps=0.3 q=23.1 size=    1536KiB time=00:00:01.00 bitrate=12583.3kbits/s speed=0.0106x elapsed=0:01:34.59    \nframe=   32 fps=0.3 q=23.1 size=    1536KiB time=00:00:01.00 bitrate=12583.3kbits/s speed=0.0105x elapsed=0:01:35.10    \nframe=   32 fps=0.3 q=23.1 size=    1536KiB time=00:00:01.00 bitrate=12583.3kbits/s speed=0.0105x elapsed=0:01:35.62    \nframe=   32 fps=0.3 q=23.1 size=    1536KiB time=00:00:01.00 bitrate=12583.3kbits/s speed=0.0104x elapsed=0:01:36.13    \nframe=   32 fps=0.3 q=23.1 size=    1536KiB time=00:00:01.00 bitrate=12583.3kbits/s speed=0.0103x elapsed=0:01:36.65    \nframe=   33 fps=0.3 q=25.7 size=    1536KiB time=00:00:01.03 bitrate=12177.4kbits/s speed=0.0106x elapsed=0:01:37.17    \nframe=   33 fps=0.3 q=25.7 size=    1536KiB time=00:00:01.03 bitrate=12177.4kbits/s speed=0.0106x elapsed=0:01:37.68    \nframe=   33 fps=0.3 q=25.7 size=    1536KiB time=00:00:01.03 bitrate=12177.4kbits/s speed=0.0105x elapsed=0:01:38.20    \nframe=   34 fps=0.3 q=25.3 size=    1536KiB time=00:00:01.06 bitrate=11796.8kbits/s speed=0.0108x elapsed=0:01:38.71    \nframe=   34 fps=0.3 q=25.3 size=    1536KiB time=00:00:01.06 bitrate=11796.8kbits/s speed=0.0107x elapsed=0:01:39.23    \nframe=   34 fps=0.3 q=25.3 size=    1536KiB time=00:00:01.06 bitrate=11796.8kbits/s speed=0.0107x elapsed=0:01:39.74    \nframe=   35 fps=0.3 q=19.6 size=    1536KiB time=00:00:01.10 bitrate=11439.3kbits/s speed=0.011x elapsed=0:01:40.26    \nframe=   35 fps=0.3 q=19.6 size=    1536KiB time=00:00:01.10 bitrate=11439.3kbits/s speed=0.0109x elapsed=0:01:40.77    \nframe=   35 fps=0.3 q=19.6 size=    1536KiB time=00:00:01.10 bitrate=11439.3kbits/s speed=0.0109x elapsed=0:01:41.30    \nframe=   35 fps=0.3 q=19.6 size=    1536KiB time=00:00:01.10 bitrate=11439.3kbits/s speed=0.0108x elapsed=0:01:41.80    \nframe=   35 fps=0.3 q=19.6 size=    1536KiB time=00:00:01.10 bitrate=11439.3kbits/s speed=0.0107x elapsed=0:01:42.32    \nframe=   35 fps=0.3 q=19.6 size=    1536KiB time=00:00:01.10 bitrate=11439.3kbits/s speed=0.0107x elapsed=0:01:42.83    \nframe=   36 fps=0.3 q=23.0 size=    1536KiB time=00:00:01.13 bitrate=11102.9kbits/s speed=0.011x elapsed=0:01:43.35    \nframe=   36 fps=0.3 q=23.0 size=    1536KiB time=00:00:01.13 bitrate=11102.9kbits/s speed=0.0109x elapsed=0:01:43.87    \nframe=   36 fps=0.3 q=23.0 size=    1536KiB time=00:00:01.13 bitrate=11102.9kbits/s speed=0.0109x elapsed=0:01:44.40    \nframe=   36 fps=0.3 q=23.0 size=    1536KiB time=00:00:01.13 bitrate=11102.9kbits/s speed=0.0108x elapsed=0:01:44.93    \nframe=   36 fps=0.3 q=23.0 size=    1536KiB time=00:00:01.13 bitrate=11102.9kbits/s speed=0.0107x elapsed=0:01:45.44    \nframe=   37 fps=0.3 q=25.2 size=    1536KiB time=00:00:01.16 bitrate=10785.7kbits/s speed=0.011x elapsed=0:01:45.96    \nframe=   37 fps=0.3 q=25.2 size=    1536KiB time=00:00:01.16 bitrate=10785.7kbits/s speed=0.011x elapsed=0:01:46.49    \nframe=   37 fps=0.3 q=25.2 size=    1536KiB time=00:00:01.16 bitrate=10785.7kbits/s speed=0.0109x elapsed=0:01:47.00    \nframe=   37 fps=0.3 q=25.2 size=    1536KiB time=00:00:01.16 bitrate=10785.7kbits/s speed=0.0108x elapsed=0:01:47.53    \nframe=   37 fps=0.3 q=25.2 size=    1536KiB time=00:00:01.16 bitrate=10785.7kbits/s speed=0.0108x elapsed=0:01:48.03    \nframe=   37 fps=0.3 q=25.2 size=    1536KiB time=00:00:01.16 bitrate=10785.7kbits/s speed=0.0107x elapsed=0:01:48.56    \nframe=   37 fps=0.3 q=25.2 size=    1536KiB time=00:00:01.16 bitrate=10785.7kbits/s speed=0.0107x elapsed=0:01:49.06    \nframe=   38 fps=0.3 q=19.7 size=    1536KiB time=00:00:01.20 bitrate=10486.1kbits/s speed=0.0109x elapsed=0:01:49.59    \nframe=   38 fps=0.3 q=19.7 size=    1536KiB time=00:00:01.20 bitrate=10486.1kbits/s speed=0.0109x elapsed=0:01:50.11    \nframe=   38 fps=0.3 q=19.7 size=    1536KiB time=00:00:01.20 bitrate=10486.1kbits/s speed=0.0108x elapsed=0:01:50.62    \nframe=   38 fps=0.3 q=19.7 size=    1536KiB time=00:00:01.20 bitrate=10486.1kbits/s speed=0.0108x elapsed=0:01:51.15    \nframe=   39 fps=0.3 q=23.1 size=    1792KiB time=00:00:01.23 bitrate=11903.0kbits/s speed=0.011x elapsed=0:01:51.66    \nframe=   39 fps=0.3 q=23.1 size=    1792KiB time=00:00:01.23 bitrate=11903.0kbits/s speed=0.011x elapsed=0:01:52.18    \nframe=   39 fps=0.3 q=23.1 size=    1792KiB time=00:00:01.23 bitrate=11903.0kbits/s speed=0.0109x elapsed=0:01:52.70    \nframe=   39 fps=0.3 q=23.1 size=    1792KiB time=00:00:01.23 bitrate=11903.0kbits/s speed=0.0109x elapsed=0:01:53.21    \nframe=   39 fps=0.3 q=23.1 size=    1792KiB time=00:00:01.23 bitrate=11903.0kbits/s speed=0.0108x elapsed=0:01:53.73    \nframe=   39 fps=0.3 q=23.1 size=    1792KiB time=00:00:01.23 bitrate=11903.0kbits/s speed=0.0108x elapsed=0:01:54.24    \nframe=   39 fps=0.3 q=23.1 size=    1792KiB time=00:00:01.23 bitrate=11903.0kbits/s speed=0.0107x elapsed=0:01:54.76    \nframe=   39 fps=0.3 q=23.1 size=    1792KiB time=00:00:01.23 bitrate=11903.0kbits/s speed=0.0107x elapsed=0:01:55.27    \nframe=   40 fps=0.3 q=25.1 size=    1792KiB time=00:00:01.26 bitrate=11589.8kbits/s speed=0.0109x elapsed=0:01:55.80    \nframe=   40 fps=0.3 q=25.1 size=    1792KiB time=00:00:01.26 bitrate=11589.8kbits/s speed=0.0109x elapsed=0:01:56.32    \nframe=   40 fps=0.3 q=25.1 size=    1792KiB time=00:00:01.26 bitrate=11589.8kbits/s speed=0.0108x elapsed=0:01:56.84    \nframe=   40 fps=0.3 q=25.1 size=    1792KiB time=00:00:01.26 bitrate=11589.8kbits/s speed=0.0108x elapsed=0:01:57.37    \nframe=   41 fps=0.3 q=25.1 size=    1792KiB time=00:00:01.30 bitrate=11292.6kbits/s speed=0.011x elapsed=0:01:57.89    \nframe=   41 fps=0.3 q=25.1 size=    1792KiB time=00:00:01.30 bitrate=11292.6kbits/s speed=0.011x elapsed=0:01:58.41    \nframe=   41 fps=0.3 q=25.1 size=    1792KiB time=00:00:01.30 bitrate=11292.6kbits/s speed=0.0109x elapsed=0:01:58.93    \nframe=   41 fps=0.3 q=25.1 size=    1792KiB time=00:00:01.30 bitrate=11292.6kbits/s speed=0.0109x elapsed=0:01:59.45    \nframe=   42 fps=0.4 q=19.6 size=    1792KiB time=00:00:01.33 bitrate=11010.3kbits/s speed=0.0111x elapsed=0:01:59.97    \nframe=   42 fps=0.3 q=19.6 size=    1792KiB time=00:00:01.33 bitrate=11010.3kbits/s speed=0.0111x elapsed=0:02:00.50    \nframe=   42 fps=0.3 q=19.6 size=    1792KiB time=00:00:01.33 bitrate=11010.3kbits/s speed=0.011x elapsed=0:02:01.02    \nframe=   42 fps=0.3 q=19.6 size=    1792KiB time=00:00:01.33 bitrate=11010.3kbits/s speed=0.011x elapsed=0:02:01.54    \nframe=   42 fps=0.3 q=19.6 size=    1792KiB time=00:00:01.33 bitrate=11010.3kbits/s speed=0.0109x elapsed=0:02:02.05    \nframe=   43 fps=0.4 q=22.8 size=    2048KiB time=00:00:01.36 bitrate=12276.3kbits/s speed=0.0111x elapsed=0:02:02.57    \nframe=   43 fps=0.3 q=22.8 size=    2048KiB time=00:00:01.36 bitrate=12276.3kbits/s speed=0.0111x elapsed=0:02:03.08    \nframe=   43 fps=0.3 q=22.8 size=    2048KiB time=00:00:01.36 bitrate=12276.3kbits/s speed=0.0111x elapsed=0:02:03.60    \nframe=   44 fps=0.4 q=25.9 size=    2048KiB time=00:00:01.40 bitrate=11984.0kbits/s speed=0.0113x elapsed=0:02:04.12    \nframe=   44 fps=0.4 q=25.9 size=    2048KiB time=00:00:01.40 bitrate=11984.0kbits/s speed=0.0112x elapsed=0:02:04.63    \nframe=   44 fps=0.4 q=25.9 size=    2048KiB time=00:00:01.40 bitrate=11984.0kbits/s speed=0.0112x elapsed=0:02:05.16    \nframe=   44 fps=0.4 q=25.9 size=    2048KiB time=00:00:01.40 bitrate=11984.0kbits/s speed=0.0111x elapsed=0:02:05.66    \nframe=   44 fps=0.3 q=25.9 size=    2048KiB time=00:00:01.40 bitrate=11984.0kbits/s speed=0.0111x elapsed=0:02:06.18    \nframe=   44 fps=0.3 q=25.9 size=    2048KiB time=00:00:01.40 bitrate=11984.0kbits/s speed=0.0111x elapsed=0:02:06.69    \nframe=   45 fps=0.4 q=25.9 size=    2048KiB time=00:00:01.43 bitrate=11705.3kbits/s speed=0.0113x elapsed=0:02:07.21    \nframe=   45 fps=0.4 q=25.9 size=    2048KiB time=00:00:01.43 bitrate=11705.3kbits/s speed=0.0112x elapsed=0:02:07.72    \nframe=   45 fps=0.4 q=25.9 size=    2048KiB time=00:00:01.43 bitrate=11705.3kbits/s speed=0.0112x elapsed=0:02:08.24    \nframe=   45 fps=0.3 q=25.9 size=    2048KiB time=00:00:01.43 bitrate=11705.3kbits/s speed=0.0111x elapsed=0:02:08.75    \nframe=   46 fps=0.4 q=25.9 size=    2048KiB time=00:00:01.46 bitrate=11439.2kbits/s speed=0.0113x elapsed=0:02:09.27    \nframe=   46 fps=0.4 q=25.9 size=    2048KiB time=00:00:01.46 bitrate=11439.2kbits/s speed=0.0113x elapsed=0:02:09.80    \nframe=   46 fps=0.4 q=25.9 size=    2048KiB time=00:00:01.46 bitrate=11439.2kbits/s speed=0.0113x elapsed=0:02:10.30    \nframe=   46 fps=0.4 q=25.9 size=    2048KiB time=00:00:01.46 bitrate=11439.2kbits/s speed=0.0112x elapsed=0:02:10.82    \nframe=   46 fps=0.4 q=25.9 size=    2048KiB time=00:00:01.46 bitrate=11439.2kbits/s speed=0.0112x elapsed=0:02:11.33    \nframe=   47 fps=0.4 q=19.7 size=    2048KiB time=00:00:01.50 bitrate=11185.0kbits/s speed=0.0114x elapsed=0:02:11.87    \nframe=   47 fps=0.4 q=19.7 size=    2048KiB time=00:00:01.50 bitrate=11185.0kbits/s speed=0.0113x elapsed=0:02:12.38    \nframe=   47 fps=0.4 q=19.7 size=    2048KiB time=00:00:01.50 bitrate=11185.0kbits/s speed=0.0113x elapsed=0:02:12.90    \nframe=   47 fps=0.4 q=19.7 size=    2048KiB time=00:00:01.50 bitrate=11185.0kbits/s speed=0.0112x elapsed=0:02:13.42    \nframe=   47 fps=0.4 q=19.7 size=    2048KiB time=00:00:01.50 bitrate=11185.0kbits/s speed=0.0112x elapsed=0:02:13.93    \nframe=   48 fps=0.4 q=23.2 size=    2304KiB time=00:00:01.53 bitrate=12309.6kbits/s speed=0.0114x elapsed=0:02:14.45    \nframe=   48 fps=0.4 q=23.2 size=    2304KiB time=00:00:01.53 bitrate=12309.6kbits/s speed=0.0114x elapsed=0:02:14.96    \nframe=   48 fps=0.4 q=23.2 size=    2304KiB time=00:00:01.53 bitrate=12309.6kbits/s speed=0.0113x elapsed=0:02:15.48    \nframe=   48 fps=0.4 q=23.2 size=    2304KiB time=00:00:01.53 bitrate=12309.6kbits/s speed=0.0113x elapsed=0:02:15.99    \nframe=   48 fps=0.4 q=23.2 size=    2304KiB time=00:00:01.53 bitrate=12309.6kbits/s speed=0.0112x elapsed=0:02:16.51    \nframe=   48 fps=0.4 q=23.2 size=    2304KiB time=00:00:01.53 bitrate=12309.6kbits/s speed=0.0112x elapsed=0:02:17.03    \nframe=   49 fps=0.4 q=26.0 size=    2304KiB time=00:00:01.56 bitrate=12047.7kbits/s speed=0.0114x elapsed=0:02:17.54    \nframe=   49 fps=0.4 q=26.0 size=    2304KiB time=00:00:01.56 bitrate=12047.7kbits/s speed=0.0113x elapsed=0:02:18.06    \nframe=   49 fps=0.4 q=26.0 size=    2304KiB time=00:00:01.56 bitrate=12047.7kbits/s speed=0.0113x elapsed=0:02:18.57    \nframe=   49 fps=0.4 q=26.0 size=    2304KiB time=00:00:01.56 bitrate=12047.7kbits/s speed=0.0113x elapsed=0:02:19.09    \nframe=   50 fps=0.4 q=19.6 size=    2304KiB time=00:00:01.60 bitrate=11796.7kbits/s speed=0.0115x elapsed=0:02:19.60    \nframe=   50 fps=0.4 q=19.6 size=    2304KiB time=00:00:01.60 bitrate=11796.7kbits/s speed=0.0114x elapsed=0:02:20.12    \nframe=   50 fps=0.4 q=19.6 size=    2304KiB time=00:00:01.60 bitrate=11796.7kbits/s speed=0.0114x elapsed=0:02:20.63    \nframe=   51 fps=0.4 q=23.5 size=    2304KiB time=00:00:01.63 bitrate=11556.0kbits/s speed=0.0116x elapsed=0:02:21.15    \nframe=   51 fps=0.4 q=23.5 size=    2304KiB time=00:00:01.63 bitrate=11556.0kbits/s speed=0.0115x elapsed=0:02:21.67    \nframe=   51 fps=0.4 q=23.5 size=    2304KiB time=00:00:01.63 bitrate=11556.0kbits/s speed=0.0115x elapsed=0:02:22.18    \nframe=   51 fps=0.4 q=23.5 size=    2304KiB time=00:00:01.63 bitrate=11556.0kbits/s speed=0.0114x elapsed=0:02:22.71    \nframe=   51 fps=0.4 q=23.5 size=    2304KiB time=00:00:01.63 bitrate=11556.0kbits/s speed=0.0114x elapsed=0:02:23.24    \nframe=   51 fps=0.4 q=23.5 size=    2304KiB time=00:00:01.63 bitrate=11556.0kbits/s speed=0.0114x elapsed=0:02:23.76    \nframe=   51 fps=0.4 q=23.5 size=    2304KiB time=00:00:01.63 bitrate=11556.0kbits/s speed=0.0113x elapsed=0:02:24.27    \nframe=   52 fps=0.4 q=26.0 size=    2304KiB time=00:00:01.66 bitrate=11324.8kbits/s speed=0.0115x elapsed=0:02:24.79    \nframe=   52 fps=0.4 q=26.0 size=    2304KiB time=00:00:01.66 bitrate=11324.8kbits/s speed=0.0115x elapsed=0:02:25.31    \nframe=   52 fps=0.4 q=26.0 size=    2304KiB time=00:00:01.66 bitrate=11324.8kbits/s speed=0.0114x elapsed=0:02:25.82    \nframe=   52 fps=0.4 q=26.0 size=    2304KiB time=00:00:01.66 bitrate=11324.8kbits/s speed=0.0114x elapsed=0:02:26.34    \nframe=   52 fps=0.4 q=26.0 size=    2304KiB time=00:00:01.66 bitrate=11324.8kbits/s speed=0.0113x elapsed=0:02:26.85    \nframe=   52 fps=0.4 q=26.0 size=    2304KiB time=00:00:01.66 bitrate=11324.8kbits/s speed=0.0113x elapsed=0:02:27.37    \nframe=   53 fps=0.4 q=25.4 size=    2304KiB time=00:00:01.70 bitrate=11102.8kbits/s speed=0.0115x elapsed=0:02:27.88    \nframe=   53 fps=0.4 q=25.4 size=    2304KiB time=00:00:01.70 bitrate=11102.8kbits/s speed=0.0115x elapsed=0:02:28.40    \nframe=   53 fps=0.4 q=25.4 size=    2304KiB time=00:00:01.70 bitrate=11102.8kbits/s speed=0.0114x elapsed=0:02:28.92    \nframe=   53 fps=0.4 q=25.4 size=    2304KiB time=00:00:01.70 bitrate=11102.8kbits/s speed=0.0114x elapsed=0:02:29.43    \nframe=   53 fps=0.4 q=25.4 size=    2304KiB time=00:00:01.70 bitrate=11102.8kbits/s speed=0.0113x elapsed=0:02:29.95    \nframe=   54 fps=0.4 q=19.6 size=    2304KiB time=00:00:01.73 bitrate=10889.3kbits/s speed=0.0115x elapsed=0:02:30.46    \nframe=   54 fps=0.4 q=19.6 size=    2304KiB time=00:00:01.73 bitrate=10889.3kbits/s speed=0.0115x elapsed=0:02:30.98    \nframe=   54 fps=0.4 q=19.6 size=    2304KiB time=00:00:01.73 bitrate=10889.3kbits/s speed=0.0114x elapsed=0:02:31.49    \nframe=   55 fps=0.4 q=22.5 size=    2560KiB time=00:00:01.76 bitrate=11870.9kbits/s speed=0.0116x elapsed=0:02:32.01    \nframe=   55 fps=0.4 q=22.5 size=    2560KiB time=00:00:01.76 bitrate=11870.9kbits/s speed=0.0116x elapsed=0:02:32.53    \nframe=   55 fps=0.4 q=22.5 size=    2560KiB time=00:00:01.76 bitrate=11870.9kbits/s speed=0.0115x elapsed=0:02:33.05    \nframe=   55 fps=0.4 q=22.5 size=    2560KiB time=00:00:01.76 bitrate=11870.9kbits/s speed=0.0115x elapsed=0:02:33.57    \nframe=   56 fps=0.4 q=25.9 size=    2560KiB time=00:00:01.80 bitrate=11651.0kbits/s speed=0.0117x elapsed=0:02:34.08    \nframe=   56 fps=0.4 q=25.9 size=    2560KiB time=00:00:01.80 bitrate=11651.0kbits/s speed=0.0116x elapsed=0:02:34.60    \nframe=   56 fps=0.4 q=25.9 size=    2560KiB time=00:00:01.80 bitrate=11651.0kbits/s speed=0.0116x elapsed=0:02:35.12    \nframe=   56 fps=0.4 q=25.9 size=    2560KiB time=00:00:01.80 bitrate=11651.0kbits/s speed=0.0116x elapsed=0:02:35.63    \nframe=   56 fps=0.4 q=25.9 size=    2560KiB time=00:00:01.80 bitrate=11651.0kbits/s speed=0.0115x elapsed=0:02:36.15    \nframe=   56 fps=0.4 q=25.9 size=    2560KiB time=00:00:01.80 bitrate=11651.0kbits/s speed=0.0115x elapsed=0:02:36.66    \nframe=   56 fps=0.4 q=25.9 size=    2560KiB time=00:00:01.80 bitrate=11651.0kbits/s speed=0.0115x elapsed=0:02:37.18    \nframe=   57 fps=0.4 q=25.9 size=    2560KiB time=00:00:01.83 bitrate=11439.2kbits/s speed=0.0116x elapsed=0:02:37.70    \nframe=   57 fps=0.4 q=25.9 size=    2560KiB time=00:00:01.83 bitrate=11439.2kbits/s speed=0.0116x elapsed=0:02:38.23    \nframe=   57 fps=0.4 q=25.9 size=    2560KiB time=00:00:01.83 bitrate=11439.2kbits/s speed=0.0115x elapsed=0:02:38.74    \nframe=   57 fps=0.4 q=25.9 size=    2560KiB time=00:00:01.83 bitrate=11439.2kbits/s speed=0.0115x elapsed=0:02:39.26    \nframe=   57 fps=0.4 q=25.9 size=    2560KiB time=00:00:01.83 bitrate=11439.2kbits/s speed=0.0115x elapsed=0:02:39.78    \nframe=   57 fps=0.4 q=25.9 size=    2560KiB time=00:00:01.83 bitrate=11439.2kbits/s speed=0.0114x elapsed=0:02:40.28    \nframe=   58 fps=0.4 q=25.3 size=    2560KiB time=00:00:01.86 bitrate=11234.9kbits/s speed=0.0116x elapsed=0:02:40.81    \nframe=   58 fps=0.4 q=25.3 size=    2560KiB time=00:00:01.86 bitrate=11234.9kbits/s speed=0.0116x elapsed=0:02:41.33    \nframe=   58 fps=0.4 q=25.3 size=    2560KiB time=00:00:01.86 bitrate=11234.9kbits/s speed=0.0115x elapsed=0:02:41.83    \nframe=   58 fps=0.4 q=25.3 size=    2560KiB time=00:00:01.86 bitrate=11234.9kbits/s speed=0.0115x elapsed=0:02:42.35    \nframe=   58 fps=0.4 q=25.3 size=    2560KiB time=00:00:01.86 bitrate=11234.9kbits/s speed=0.0115x elapsed=0:02:42.86    \nframe=   58 fps=0.4 q=25.3 size=    2560KiB time=00:00:01.86 bitrate=11234.9kbits/s speed=0.0114x elapsed=0:02:43.39    \nframe=   58 fps=0.4 q=25.3 size=    2560KiB time=00:00:01.86 bitrate=11234.9kbits/s speed=0.0114x elapsed=0:02:43.89    \nframe=   59 fps=0.4 q=19.2 size=    2560KiB time=00:00:01.90 bitrate=11037.8kbits/s speed=0.0116x elapsed=0:02:44.42    \nframe=   60 fps=0.4 q=23.1 size=    2816KiB time=00:00:01.93 bitrate=11932.3kbits/s speed=0.0117x elapsed=0:02:44.92    \nframe=   60 fps=0.4 q=23.1 size=    2816KiB time=00:00:01.93 bitrate=11932.3kbits/s speed=0.0117x elapsed=0:02:45.44    \nframe=   60 fps=0.4 q=23.1 size=    2816KiB time=00:00:01.93 bitrate=11932.3kbits/s speed=0.0116x elapsed=0:02:45.97    \nframe=   60 fps=0.4 q=23.1 size=    2816KiB time=00:00:01.93 bitrate=11932.3kbits/s speed=0.0116x elapsed=0:02:46.47    \nframe=   61 fps=0.4 q=25.9 size=    2816KiB time=00:00:01.96 bitrate=11730.0kbits/s speed=0.0118x elapsed=0:02:47.00    \nframe=   61 fps=0.4 q=25.9 size=    2816KiB time=00:00:01.96 bitrate=11730.0kbits/s speed=0.0117x elapsed=0:02:47.50    \nframe=   61 fps=0.4 q=25.9 size=    2816KiB time=00:00:01.96 bitrate=11730.0kbits/s speed=0.0117x elapsed=0:02:48.03    \nframe=   61 fps=0.4 q=25.9 size=    2816KiB time=00:00:01.96 bitrate=11730.0kbits/s speed=0.0117x elapsed=0:02:48.55    \nframe=   61 fps=0.4 q=25.9 size=    2816KiB time=00:00:01.96 bitrate=11730.0kbits/s speed=0.0116x elapsed=0:02:49.05    \nframe=   62 fps=0.4 q=25.9 size=    2816KiB time=00:00:02.00 bitrate=11534.5kbits/s speed=0.0118x elapsed=0:02:49.57    \nframe=   62 fps=0.4 q=25.9 size=    2816KiB time=00:00:02.00 bitrate=11534.5kbits/s speed=0.0118x elapsed=0:02:50.08    \nframe=   62 fps=0.4 q=25.9 size=    2816KiB time=00:00:02.00 bitrate=11534.5kbits/s speed=0.0117x elapsed=0:02:50.60    \nframe=   63 fps=0.4 q=19.5 size=    2816KiB time=00:00:02.03 bitrate=11345.4kbits/s speed=0.0119x elapsed=0:02:51.12    \nframe=   63 fps=0.4 q=19.5 size=    2816KiB time=00:00:02.03 bitrate=11345.4kbits/s speed=0.0118x elapsed=0:02:51.63    \nframe=   63 fps=0.4 q=19.5 size=    2816KiB time=00:00:02.03 bitrate=11345.4kbits/s speed=0.0118x elapsed=0:02:52.15    \nframe=   64 fps=0.4 q=23.2 size=    3072KiB time=00:00:02.06 bitrate=12177.2kbits/s speed=0.012x elapsed=0:02:52.66    \nframe=   64 fps=0.4 q=23.2 size=    3072KiB time=00:00:02.06 bitrate=12177.2kbits/s speed=0.0119x elapsed=0:02:53.18    \nframe=   64 fps=0.4 q=23.2 size=    3072KiB time=00:00:02.06 bitrate=12177.2kbits/s speed=0.0119x elapsed=0:02:53.69    \nframe=   65 fps=0.4 q=26.0 size=    3072KiB time=00:00:02.10 bitrate=11983.9kbits/s speed=0.0121x elapsed=0:02:54.21    \nframe=   65 fps=0.4 q=26.0 size=    3072KiB time=00:00:02.10 bitrate=11983.9kbits/s speed=0.012x elapsed=0:02:54.73    \nframe=   65 fps=0.4 q=26.0 size=    3072KiB time=00:00:02.10 bitrate=11983.9kbits/s speed=0.012x elapsed=0:02:55.24    \nframe=   65 fps=0.4 q=26.0 size=    3072KiB time=00:00:02.10 bitrate=11983.9kbits/s speed=0.0119x elapsed=0:02:55.76    \nframe=   65 fps=0.4 q=26.0 size=    3072KiB time=00:00:02.10 bitrate=11983.9kbits/s speed=0.0119x elapsed=0:02:56.27    \nframe=   65 fps=0.4 q=26.0 size=    3072KiB time=00:00:02.10 bitrate=11983.9kbits/s speed=0.0119x elapsed=0:02:56.79    \nframe=   65 fps=0.4 q=26.0 size=    3072KiB time=00:00:02.10 bitrate=11983.9kbits/s speed=0.0118x elapsed=0:02:57.30    \nframe=   65 fps=0.4 q=26.0 size=    3072KiB time=00:00:02.10 bitrate=11983.9kbits/s speed=0.0118x elapsed=0:02:57.82    \nframe=   65 fps=0.4 q=26.0 size=    3072KiB time=00:00:02.10 bitrate=11983.9kbits/s speed=0.0118x elapsed=0:02:58.34    \nframe=   66 fps=0.4 q=25.8 size=    3072KiB time=00:00:02.13 bitrate=11796.6kbits/s speed=0.0119x elapsed=0:02:58.85    \nframe=   66 fps=0.4 q=25.8 size=    3072KiB time=00:00:02.13 bitrate=11796.6kbits/s speed=0.0119x elapsed=0:02:59.36    \nframe=   66 fps=0.4 q=25.8 size=    3072KiB time=00:00:02.13 bitrate=11796.6kbits/s speed=0.0119x elapsed=0:02:59.89    \nframe=   67 fps=0.4 q=19.5 size=    3072KiB time=00:00:02.16 bitrate=11615.2kbits/s speed=0.012x elapsed=0:03:00.40    \nframe=   67 fps=0.4 q=19.5 size=    3072KiB time=00:00:02.16 bitrate=11615.2kbits/s speed=0.012x elapsed=0:03:00.92    \nframe=   67 fps=0.4 q=19.5 size=    3072KiB time=00:00:02.16 bitrate=11615.2kbits/s speed=0.0119x elapsed=0:03:01.43    \nframe=   67 fps=0.4 q=19.5 size=    3072KiB time=00:00:02.16 bitrate=11615.2kbits/s speed=0.0119x elapsed=0:03:01.95    \nframe=   67 fps=0.4 q=19.5 size=    3072KiB time=00:00:02.16 bitrate=11615.2kbits/s speed=0.0119x elapsed=0:03:02.46    \nframe=   68 fps=0.4 q=23.2 size=    3072KiB time=00:00:02.20 bitrate=11439.2kbits/s speed=0.012x elapsed=0:03:02.98    \nframe=   68 fps=0.4 q=23.2 size=    3072KiB time=00:00:02.20 bitrate=11439.2kbits/s speed=0.012x elapsed=0:03:03.49    \nframe=   68 fps=0.4 q=23.2 size=    3072KiB time=00:00:02.20 bitrate=11439.2kbits/s speed=0.012x elapsed=0:03:04.01    \nframe=   68 fps=0.4 q=23.2 size=    3072KiB time=00:00:02.20 bitrate=11439.2kbits/s speed=0.0119x elapsed=0:03:04.53    \nframe=   69 fps=0.4 q=25.6 size=    3072KiB time=00:00:02.23 bitrate=11268.4kbits/s speed=0.0121x elapsed=0:03:05.04    \nframe=   69 fps=0.4 q=25.6 size=    3072KiB time=00:00:02.23 bitrate=11268.4kbits/s speed=0.012x elapsed=0:03:05.55    \nframe=   69 fps=0.4 q=25.6 size=    3072KiB time=00:00:02.23 bitrate=11268.4kbits/s speed=0.012x elapsed=0:03:06.07    \nframe=   70 fps=0.4 q=26.0 size=    3328KiB time=00:00:02.26 bitrate=12027.9kbits/s speed=0.0121x elapsed=0:03:06.58    \nframe=   70 fps=0.4 q=26.0 size=    3328KiB time=00:00:02.26 bitrate=12027.9kbits/s speed=0.0121x elapsed=0:03:07.11    \nframe=   70 fps=0.4 q=26.0 size=    3328KiB time=00:00:02.26 bitrate=12027.9kbits/s speed=0.0121x elapsed=0:03:07.61    \nframe=   71 fps=0.4 q=19.7 size=    3328KiB time=00:00:02.30 bitrate=11853.6kbits/s speed=0.0122x elapsed=0:03:08.14    \nframe=   71 fps=0.4 q=19.7 size=    3328KiB time=00:00:02.30 bitrate=11853.6kbits/s speed=0.0122x elapsed=0:03:08.64    \nframe=   71 fps=0.4 q=19.7 size=    3328KiB time=00:00:02.30 bitrate=11853.6kbits/s speed=0.0122x elapsed=0:03:09.18    \nframe=   72 fps=0.4 q=23.4 size=    3328KiB time=00:00:02.33 bitrate=11684.3kbits/s speed=0.0123x elapsed=0:03:09.70    \nframe=   72 fps=0.4 q=23.4 size=    3328KiB time=00:00:02.33 bitrate=11684.3kbits/s speed=0.0123x elapsed=0:03:10.21    \nframe=   72 fps=0.4 q=23.4 size=    3328KiB time=00:00:02.33 bitrate=11684.3kbits/s speed=0.0122x elapsed=0:03:10.73    \nframe=   73 fps=0.4 q=26.0 size=    3328KiB time=00:00:02.36 bitrate=11519.7kbits/s speed=0.0124x elapsed=0:03:11.24    \nframe=   73 fps=0.4 q=26.0 size=    3328KiB time=00:00:02.36 bitrate=11519.7kbits/s speed=0.0123x elapsed=0:03:11.76    \nframe=   73 fps=0.4 q=26.0 size=    3328KiB time=00:00:02.36 bitrate=11519.7kbits/s speed=0.0123x elapsed=0:03:12.27    \nframe=   73 fps=0.4 q=26.0 size=    3328KiB time=00:00:02.36 bitrate=11519.7kbits/s speed=0.0123x elapsed=0:03:12.79    \nframe=   73 fps=0.4 q=26.0 size=    3328KiB time=00:00:02.36 bitrate=11519.7kbits/s speed=0.0122x elapsed=0:03:13.31    \nframe=   74 fps=0.4 q=26.0 size=    3328KiB time=00:00:02.40 bitrate=11359.7kbits/s speed=0.0124x elapsed=0:03:13.82    \nframe=   74 fps=0.4 q=26.0 size=    3328KiB time=00:00:02.40 bitrate=11359.7kbits/s speed=0.0123x elapsed=0:03:14.33    \nframe=   74 fps=0.4 q=26.0 size=    3328KiB time=00:00:02.40 bitrate=11359.7kbits/s speed=0.0123x elapsed=0:03:14.85    \nframe=   75 fps=0.4 q=19.3 size=    3328KiB time=00:00:02.43 bitrate=11204.1kbits/s speed=0.0125x elapsed=0:03:15.37    \nframe=   75 fps=0.4 q=19.3 size=    3328KiB time=00:00:02.43 bitrate=11204.1kbits/s speed=0.0124x elapsed=0:03:15.88    \nframe=   75 fps=0.4 q=19.3 size=    3328KiB time=00:00:02.43 bitrate=11204.1kbits/s speed=0.0124x elapsed=0:03:16.41    \nframe=   75 fps=0.4 q=19.3 size=    3328KiB time=00:00:02.43 bitrate=11204.1kbits/s speed=0.0124x elapsed=0:03:16.92    \nframe=   75 fps=0.4 q=19.3 size=    3328KiB time=00:00:02.43 bitrate=11204.1kbits/s speed=0.0123x elapsed=0:03:17.45    \nframe=   76 fps=0.4 q=23.3 size=    3584KiB time=00:00:02.46 bitrate=11902.9kbits/s speed=0.0125x elapsed=0:03:17.97    \nframe=   76 fps=0.4 q=23.3 size=    3584KiB time=00:00:02.46 bitrate=11902.9kbits/s speed=0.0124x elapsed=0:03:18.48    \nframe=   76 fps=0.4 q=23.3 size=    3584KiB time=00:00:02.46 bitrate=11902.9kbits/s speed=0.0124x elapsed=0:03:18.99    \nframe=   76 fps=0.4 q=23.3 size=    3584KiB time=00:00:02.46 bitrate=11902.9kbits/s speed=0.0124x elapsed=0:03:19.50    \nframe=   76 fps=0.4 q=23.3 size=    3584KiB time=00:00:02.46 bitrate=11902.9kbits/s speed=0.0123x elapsed=0:03:20.03    \nframe=   76 fps=0.4 q=23.3 size=    3584KiB time=00:00:02.46 bitrate=11902.9kbits/s speed=0.0123x elapsed=0:03:20.55    \nframe=   76 fps=0.4 q=23.3 size=    3584KiB time=00:00:02.46 bitrate=11902.9kbits/s speed=0.0123x elapsed=0:03:21.07    \nframe=   77 fps=0.4 q=26.0 size=    3584KiB time=00:00:02.50 bitrate=11744.2kbits/s speed=0.0124x elapsed=0:03:21.59    \nframe=   77 fps=0.4 q=26.0 size=    3584KiB time=00:00:02.50 bitrate=11744.2kbits/s speed=0.0124x elapsed=0:03:22.10    \nframe=   77 fps=0.4 q=26.0 size=    3584KiB time=00:00:02.50 bitrate=11744.2kbits/s speed=0.0123x elapsed=0:03:22.61    \nframe=   78 fps=0.4 q=25.6 size=    3584KiB time=00:00:02.53 bitrate=11589.7kbits/s speed=0.0125x elapsed=0:03:23.13    \nframe=   78 fps=0.4 q=25.6 size=    3584KiB time=00:00:02.53 bitrate=11589.7kbits/s speed=0.0124x elapsed=0:03:23.65    \nframe=   79 fps=0.4 q=19.4 size=    3584KiB time=00:00:02.56 bitrate=11439.1kbits/s speed=0.0126x elapsed=0:03:24.16    \nframe=   79 fps=0.4 q=19.4 size=    3584KiB time=00:00:02.56 bitrate=11439.1kbits/s speed=0.0125x elapsed=0:03:24.70    \nframe=   79 fps=0.4 q=19.4 size=    3584KiB time=00:00:02.56 bitrate=11439.1kbits/s speed=0.0125x elapsed=0:03:25.22    \nframe=   79 fps=0.4 q=19.4 size=    3584KiB time=00:00:02.56 bitrate=11439.1kbits/s speed=0.0125x elapsed=0:03:25.75    \nframe=   80 fps=0.4 q=23.2 size=    3840KiB time=00:00:02.60 bitrate=12099.1kbits/s speed=0.0126x elapsed=0:03:26.26    \nframe=   80 fps=0.4 q=23.2 size=    3840KiB time=00:00:02.60 bitrate=12099.1kbits/s speed=0.0126x elapsed=0:03:26.78    \nframe=   80 fps=0.4 q=23.2 size=    3840KiB time=00:00:02.60 bitrate=12099.1kbits/s speed=0.0125x elapsed=0:03:27.29    \nframe=   80 fps=0.4 q=23.2 size=    3840KiB time=00:00:02.60 bitrate=12099.1kbits/s speed=0.0125x elapsed=0:03:27.81    \nframe=   80 fps=0.4 q=23.2 size=    3840KiB time=00:00:02.60 bitrate=12099.1kbits/s speed=0.0125x elapsed=0:03:28.32    \nframe=   81 fps=0.4 q=26.2 size=    3840KiB time=00:00:02.63 bitrate=11945.9kbits/s speed=0.0126x elapsed=0:03:28.84    \nframe=   81 fps=0.4 q=26.2 size=    3840KiB time=00:00:02.63 bitrate=11945.9kbits/s speed=0.0126x elapsed=0:03:29.35    \nframe=   81 fps=0.4 q=26.2 size=    3840KiB time=00:00:02.63 bitrate=11945.9kbits/s speed=0.0125x elapsed=0:03:29.88    \nframe=   81 fps=0.4 q=26.2 size=    3840KiB time=00:00:02.63 bitrate=11945.9kbits/s speed=0.0125x elapsed=0:03:30.40    \nframe=   82 fps=0.4 q=25.9 size=    3840KiB time=00:00:02.66 bitrate=11796.6kbits/s speed=0.0126x elapsed=0:03:30.92    \nframe=   82 fps=0.4 q=25.9 size=    3840KiB time=00:00:02.66 bitrate=11796.6kbits/s speed=0.0126x elapsed=0:03:31.44    \nframe=   82 fps=0.4 q=25.9 size=    3840KiB time=00:00:02.66 bitrate=11796.6kbits/s speed=0.0126x elapsed=0:03:31.96    \nframe=   83 fps=0.4 q=19.8 size=    3840KiB time=00:00:02.70 bitrate=11651.0kbits/s speed=0.0127x elapsed=0:03:32.49    \nframe=   83 fps=0.4 q=19.8 size=    3840KiB time=00:00:02.70 bitrate=11651.0kbits/s speed=0.0127x elapsed=0:03:33.01    \nframe=   83 fps=0.4 q=19.8 size=    3840KiB time=00:00:02.70 bitrate=11651.0kbits/s speed=0.0126x elapsed=0:03:33.53    \nframe=   84 fps=0.4 q=23.0 size=    3840KiB time=00:00:02.73 bitrate=11508.9kbits/s speed=0.0128x elapsed=0:03:34.04    \nframe=   84 fps=0.4 q=23.0 size=    3840KiB time=00:00:02.73 bitrate=11508.9kbits/s speed=0.0127x elapsed=0:03:34.57    \nframe=   84 fps=0.4 q=23.0 size=    3840KiB time=00:00:02.73 bitrate=11508.9kbits/s speed=0.0127x elapsed=0:03:35.08    \nframe=   85 fps=0.4 q=26.3 size=    4096KiB time=00:00:02.76 bitrate=12128.2kbits/s speed=0.0128x elapsed=0:03:35.60    \nframe=   85 fps=0.4 q=26.3 size=    4096KiB time=00:00:02.76 bitrate=12128.2kbits/s speed=0.0128x elapsed=0:03:36.11    \nframe=   85 fps=0.4 q=26.3 size=    4096KiB time=00:00:02.76 bitrate=12128.2kbits/s speed=0.0128x elapsed=0:03:36.63    \nframe=   86 fps=0.4 q=26.1 size=    4096KiB time=00:00:02.80 bitrate=11983.9kbits/s speed=0.0129x elapsed=0:03:37.14    \nframe=   86 fps=0.4 q=26.1 size=    4096KiB time=00:00:02.80 bitrate=11983.9kbits/s speed=0.0129x elapsed=0:03:37.67    \nframe=   86 fps=0.4 q=26.1 size=    4096KiB time=00:00:02.80 bitrate=11983.9kbits/s speed=0.0128x elapsed=0:03:38.20    \nframe=   86 fps=0.4 q=26.1 size=    4096KiB time=00:00:02.80 bitrate=11983.9kbits/s speed=0.0128x elapsed=0:03:38.71    \nframe=   86 fps=0.4 q=26.1 size=    4096KiB time=00:00:02.80 bitrate=11983.9kbits/s speed=0.0128x elapsed=0:03:39.23    \nframe=   86 fps=0.4 q=26.1 size=    4096KiB time=00:00:02.80 bitrate=11983.9kbits/s speed=0.0127x elapsed=0:03:39.73    \nframe=   87 fps=0.4 q=19.3 size=    4096KiB time=00:00:02.83 bitrate=11842.9kbits/s speed=0.0129x elapsed=0:03:40.25    \nframe=   87 fps=0.4 q=19.3 size=    4096KiB time=00:00:02.83 bitrate=11842.9kbits/s speed=0.0128x elapsed=0:03:40.77    \nframe=   87 fps=0.4 q=19.3 size=    4096KiB time=00:00:02.83 bitrate=11842.9kbits/s speed=0.0128x elapsed=0:03:41.29    \nframe=   88 fps=0.4 q=26.5 size=    4096KiB time=00:00:02.86 bitrate=11705.2kbits/s speed=0.0129x elapsed=0:03:41.80    \nframe=   88 fps=0.4 q=26.5 size=    4096KiB time=00:00:02.86 bitrate=11705.2kbits/s speed=0.0129x elapsed=0:03:42.32    \nframe=   89 fps=0.4 q=19.1 size=    4096KiB time=00:00:02.90 bitrate=11570.6kbits/s speed=0.013x elapsed=0:03:42.84    \nframe=   89 fps=0.4 q=19.1 size=    4096KiB time=00:00:02.90 bitrate=11570.6kbits/s speed=0.013x elapsed=0:03:43.37    \nframe=   89 fps=0.4 q=19.1 size=    4096KiB time=00:00:02.90 bitrate=11570.6kbits/s speed=0.013x elapsed=0:03:43.89    \nframe=   89 fps=0.4 q=19.1 size=    4096KiB time=00:00:02.90 bitrate=11570.6kbits/s speed=0.0129x elapsed=0:03:44.39    \nframe=   89 fps=0.4 q=19.1 size=    4096KiB time=00:00:02.90 bitrate=11570.6kbits/s speed=0.0129x elapsed=0:03:44.96    \nframe=   89 fps=0.4 q=19.1 size=    4096KiB time=00:00:02.90 bitrate=11570.6kbits/s speed=0.0129x elapsed=0:03:45.54    \nframe=   89 fps=0.4 q=19.1 size=    4096KiB time=00:00:02.90 bitrate=11570.6kbits/s speed=0.0128x elapsed=0:03:46.07    \nframe=   89 fps=0.4 q=19.1 size=    4096KiB time=00:00:02.90 bitrate=11570.6kbits/s speed=0.0128x elapsed=0:03:46.61    \nframe=   89 fps=0.4 q=19.1 size=    4096KiB time=00:00:02.90 bitrate=11570.6kbits/s speed=0.0128x elapsed=0:03:47.16    \nframe=   90 fps=0.4 q=21.3 size=    4352KiB time=00:00:02.93 bitrate=12154.1kbits/s speed=0.0129x elapsed=0:03:47.69    \nframe=   90 fps=0.4 q=21.3 size=    4352KiB time=00:00:02.93 bitrate=12154.1kbits/s speed=0.0129x elapsed=0:03:48.22    \nframe=   90 fps=0.4 q=21.3 size=    4352KiB time=00:00:02.93 bitrate=12154.1kbits/s speed=0.0128x elapsed=0:03:48.74    \nframe=   90 fps=0.4 q=21.3 size=    4352KiB time=00:00:02.93 bitrate=12154.1kbits/s speed=0.0128x elapsed=0:03:49.32    \nframe=   90 fps=0.4 q=21.3 size=    4352KiB time=00:00:02.93 bitrate=12154.1kbits/s speed=0.0128x elapsed=0:03:49.86    \nframe=   91 fps=0.4 q=26.4 size=    4352KiB time=00:00:02.96 bitrate=12017.5kbits/s speed=0.0129x elapsed=0:03:50.37    \nframe=   91 fps=0.4 q=26.4 size=    4352KiB time=00:00:02.96 bitrate=12017.5kbits/s speed=0.0128x elapsed=0:03:50.94    \nframe=   91 fps=0.4 q=26.4 size=    4352KiB time=00:00:02.96 bitrate=12017.5kbits/s speed=0.0128x elapsed=0:03:51.50    \nframe=   91 fps=0.4 q=26.4 size=    4352KiB time=00:00:02.96 bitrate=12017.5kbits/s speed=0.0128x elapsed=0:03:52.05    \nframe=   91 fps=0.4 q=26.4 size=    4352KiB time=00:00:02.96 bitrate=12017.5kbits/s speed=0.0128x elapsed=0:03:52.58    \nframe=   91 fps=0.4 q=26.4 size=    4352KiB time=00:00:02.96 bitrate=12017.5kbits/s speed=0.0127x elapsed=0:03:53.10    \nframe=   92 fps=0.4 q=26.5 size=    4352KiB time=00:00:03.00 bitrate=11884.0kbits/s speed=0.0128x elapsed=0:03:53.68    \nframe=   92 fps=0.4 q=26.5 size=    4352KiB time=00:00:03.00 bitrate=11884.0kbits/s speed=0.0128x elapsed=0:03:54.21    \nframe=   92 fps=0.4 q=26.5 size=    4352KiB time=00:00:03.00 bitrate=11884.0kbits/s speed=0.0128x elapsed=0:03:54.79    \nframe=   92 fps=0.4 q=26.5 size=    4352KiB time=00:00:03.00 bitrate=11884.0kbits/s speed=0.0127x elapsed=0:03:55.31    \nframe=   93 fps=0.4 q=26.5 size=    4352KiB time=00:00:03.03 bitrate=11753.4kbits/s speed=0.0129x elapsed=0:03:55.85    \nframe=   93 fps=0.4 q=26.5 size=    4352KiB time=00:00:03.03 bitrate=11753.4kbits/s speed=0.0128x elapsed=0:03:56.37    \nframe=   93 fps=0.4 q=26.5 size=    4352KiB time=00:00:03.03 bitrate=11753.4kbits/s speed=0.0128x elapsed=0:03:56.89    \nframe=   93 fps=0.4 q=26.5 size=    4352KiB time=00:00:03.03 bitrate=11753.4kbits/s speed=0.0128x elapsed=0:03:57.52    \nframe=   93 fps=0.4 q=26.5 size=    4352KiB time=00:00:03.03 bitrate=11753.4kbits/s speed=0.0127x elapsed=0:03:58.14    \nframe=   93 fps=0.4 q=26.5 size=    4352KiB time=00:00:03.03 bitrate=11753.4kbits/s speed=0.0127x elapsed=0:03:58.68    \nframe=   93 fps=0.4 q=26.5 size=    4352KiB time=00:00:03.03 bitrate=11753.4kbits/s speed=0.0127x elapsed=0:03:59.22    \nframe=   93 fps=0.4 q=26.5 size=    4352KiB time=00:00:03.03 bitrate=11753.4kbits/s speed=0.0127x elapsed=0:03:59.75    \nframe=   93 fps=0.4 q=26.5 size=    4352KiB time=00:00:03.03 bitrate=11753.4kbits/s speed=0.0126x elapsed=0:04:00.30    \nframe=   93 fps=0.4 q=26.5 size=    4352KiB time=00:00:03.03 bitrate=11753.4kbits/s speed=0.0126x elapsed=0:04:00.84    \nframe=   94 fps=0.4 q=19.7 size=    4352KiB time=00:00:03.06 bitrate=11625.6kbits/s speed=0.0127x elapsed=0:04:01.34    \nframe=   94 fps=0.4 q=19.7 size=    4352KiB time=00:00:03.06 bitrate=11625.6kbits/s speed=0.0127x elapsed=0:04:01.87    \nframe=   94 fps=0.4 q=19.7 size=    4352KiB time=00:00:03.06 bitrate=11625.6kbits/s speed=0.0127x elapsed=0:04:02.40    \nframe=   94 fps=0.4 q=19.7 size=    4352KiB time=00:00:03.06 bitrate=11625.6kbits/s speed=0.0126x elapsed=0:04:02.96    \nframe=   94 fps=0.4 q=19.7 size=    4352KiB time=00:00:03.06 bitrate=11625.6kbits/s speed=0.0126x elapsed=0:04:03.52    \nframe=   94 fps=0.4 q=19.7 size=    4352KiB time=00:00:03.06 bitrate=11625.6kbits/s speed=0.0126x elapsed=0:04:04.04    \nframe=   94 fps=0.4 q=19.7 size=    4352KiB time=00:00:03.06 bitrate=11625.6kbits/s speed=0.0125x elapsed=0:04:04.57    \nframe=   94 fps=0.4 q=19.7 size=    4352KiB time=00:00:03.06 bitrate=11625.6kbits/s speed=0.0125x elapsed=0:04:05.12    \nframe=   94 fps=0.4 q=19.7 size=    4352KiB time=00:00:03.06 bitrate=11625.6kbits/s speed=0.0125x elapsed=0:04:05.68    \nframe=   94 fps=0.4 q=19.7 size=    4352KiB time=00:00:03.06 bitrate=11625.6kbits/s speed=0.0125x elapsed=0:04:06.25    \nframe=   94 fps=0.4 q=19.7 size=    4352KiB time=00:00:03.06 bitrate=11625.6kbits/s speed=0.0124x elapsed=0:04:06.78    \nframe=   95 fps=0.4 q=21.1 size=    4608KiB time=00:00:03.10 bitrate=12177.1kbits/s speed=0.0125x elapsed=0:04:07.32    \nframe=   95 fps=0.4 q=21.1 size=    4608KiB time=00:00:03.10 bitrate=12177.1kbits/s speed=0.0125x elapsed=0:04:07.91    \nframe=   95 fps=0.4 q=21.1 size=    4608KiB time=00:00:03.10 bitrate=12177.1kbits/s speed=0.0125x elapsed=0:04:08.47    \nframe=   96 fps=0.4 q=26.4 size=    4608KiB time=00:00:03.13 bitrate=12047.6kbits/s speed=0.0126x elapsed=0:04:09.07    \nframe=   96 fps=0.4 q=26.4 size=    4608KiB time=00:00:03.13 bitrate=12047.6kbits/s speed=0.0125x elapsed=0:04:09.72    \nframe=   96 fps=0.4 q=26.4 size=    4608KiB time=00:00:03.13 bitrate=12047.6kbits/s speed=0.0125x elapsed=0:04:10.49    \nframe=   97 fps=0.4 q=26.7 size=    4608KiB time=00:00:03.16 bitrate=11920.8kbits/s speed=0.0126x elapsed=0:04:11.09    \nframe=   97 fps=0.4 q=26.7 size=    4608KiB time=00:00:03.16 bitrate=11920.8kbits/s speed=0.0126x elapsed=0:04:11.72    \nframe=   97 fps=0.4 q=26.7 size=    4608KiB time=00:00:03.16 bitrate=11920.8kbits/s speed=0.0126x elapsed=0:04:12.31    \nframe=   97 fps=0.4 q=26.7 size=    4608KiB time=00:00:03.16 bitrate=11920.8kbits/s speed=0.0125x elapsed=0:04:12.88    \nframe=   97 fps=0.4 q=26.7 size=    4608KiB time=00:00:03.16 bitrate=11920.8kbits/s speed=0.0125x elapsed=0:04:13.42    \nframe=   98 fps=0.4 q=27.1 size=    4608KiB time=00:00:03.20 bitrate=11796.6kbits/s speed=0.0126x elapsed=0:04:13.98    \nframe=   98 fps=0.4 q=27.1 size=    4608KiB time=00:00:03.20 bitrate=11796.6kbits/s speed=0.0126x elapsed=0:04:14.49    \nframe=   98 fps=0.4 q=27.1 size=    4608KiB time=00:00:03.20 bitrate=11796.6kbits/s speed=0.0125x elapsed=0:04:15.01    \nframe=   98 fps=0.4 q=27.1 size=    4608KiB time=00:00:03.20 bitrate=11796.6kbits/s speed=0.0125x elapsed=0:04:15.56    \nframe=   98 fps=0.4 q=27.1 size=    4608KiB time=00:00:03.20 bitrate=11796.6kbits/s speed=0.0125x elapsed=0:04:16.16    \nframe=   98 fps=0.4 q=27.1 size=    4608KiB time=00:00:03.20 bitrate=11796.6kbits/s speed=0.0125x elapsed=0:04:16.77    \nframe=   98 fps=0.4 q=27.1 size=    4608KiB time=00:00:03.20 bitrate=11796.6kbits/s speed=0.0124x elapsed=0:04:17.36    \nframe=   98 fps=0.4 q=27.1 size=    4608KiB time=00:00:03.20 bitrate=11796.6kbits/s speed=0.0124x elapsed=0:04:17.90    \nframe=   99 fps=0.4 q=19.7 size=    4608KiB time=00:00:03.23 bitrate=11675.0kbits/s speed=0.0125x elapsed=0:04:18.62    \nframe=   99 fps=0.4 q=19.7 size=    4608KiB time=00:00:03.23 bitrate=11675.0kbits/s speed=0.0125x elapsed=0:04:19.23    \nframe=   99 fps=0.4 q=19.7 size=    4608KiB time=00:00:03.23 bitrate=11675.0kbits/s speed=0.0124x elapsed=0:04:19.90    \nframe=   99 fps=0.4 q=19.7 size=    4608KiB time=00:00:03.23 bitrate=11675.0kbits/s speed=0.0124x elapsed=0:04:20.43    \nframe=   99 fps=0.4 q=19.7 size=    4608KiB time=00:00:03.23 bitrate=11675.0kbits/s speed=0.0124x elapsed=0:04:21.02    \nframe=   99 fps=0.4 q=19.7 size=    4608KiB time=00:00:03.23 bitrate=11675.0kbits/s speed=0.0124x elapsed=0:04:21.73    \nframe=   99 fps=0.4 q=19.7 size=    4608KiB time=00:00:03.23 bitrate=11675.0kbits/s speed=0.0123x elapsed=0:04:22.36    \nframe=   99 fps=0.4 q=19.7 size=    4608KiB time=00:00:03.23 bitrate=11675.0kbits/s speed=0.0123x elapsed=0:04:22.96    \nframe=   99 fps=0.4 q=19.7 size=    4608KiB time=00:00:03.23 bitrate=11675.0kbits/s speed=0.0123x elapsed=0:04:23.60    \nframe=   99 fps=0.4 q=19.7 size=    4608KiB time=00:00:03.23 bitrate=11675.0kbits/s speed=0.0122x elapsed=0:04:24.21    \nframe=   99 fps=0.4 q=19.7 size=    4608KiB time=00:00:03.23 bitrate=11675.0kbits/s speed=0.0122x elapsed=0:04:24.92    \nframe=   99 fps=0.4 q=19.7 size=    4608KiB time=00:00:03.23 bitrate=11675.0kbits/s speed=0.0122x elapsed=0:04:25.55    \nframe=   99 fps=0.4 q=19.7 size=    4608KiB time=00:00:03.23 bitrate=11675.0kbits/s speed=0.0121x elapsed=0:04:26.30    \nframe=   99 fps=0.4 q=19.7 size=    4608KiB time=00:00:03.23 bitrate=11675.0kbits/s speed=0.0121x elapsed=0:04:26.94    \nframe=   99 fps=0.4 q=19.7 size=    4608KiB time=00:00:03.23 bitrate=11675.0kbits/s speed=0.0121x elapsed=0:04:27.50    \nframe=   99 fps=0.4 q=19.7 size=    4608KiB time=00:00:03.23 bitrate=11675.0kbits/s speed=0.0121x elapsed=0:04:28.12    \nframe=   99 fps=0.4 q=19.7 size=    4608KiB time=00:00:03.23 bitrate=11675.0kbits/s speed=0.012x elapsed=0:04:28.66    \nframe=   99 fps=0.4 q=19.7 size=    4608KiB time=00:00:03.23 bitrate=11675.0kbits/s speed=0.012x elapsed=0:04:29.30    \nframe=   99 fps=0.4 q=19.7 size=    4608KiB time=00:00:03.23 bitrate=11675.0kbits/s speed=0.012x elapsed=0:04:29.87    \nframe=   99 fps=0.4 q=19.7 size=    4608KiB time=00:00:03.23 bitrate=11675.0kbits/s speed=0.012x elapsed=0:04:30.43    \nframe=   99 fps=0.4 q=19.7 size=    4608KiB time=00:00:03.23 bitrate=11675.0kbits/s speed=0.0119x elapsed=0:04:30.95    \nframe=   99 fps=0.4 q=19.7 size=    4608KiB time=00:00:03.23 bitrate=11675.0kbits/s speed=0.0119x elapsed=0:04:31.49    \nframe=  100 fps=0.4 q=24.1 size=    4864KiB time=00:00:03.26 bitrate=12197.8kbits/s speed=0.012x elapsed=0:04:32.04    \nframe=  100 fps=0.4 q=24.1 size=    4864KiB time=00:00:03.26 bitrate=12197.8kbits/s speed=0.012x elapsed=0:04:32.57    \nframe=  100 fps=0.4 q=24.1 size=    4864KiB time=00:00:03.26 bitrate=12197.8kbits/s speed=0.012x elapsed=0:04:33.13    \nframe=  100 fps=0.4 q=24.1 size=    4864KiB time=00:00:03.26 bitrate=12197.8kbits/s speed=0.0119x elapsed=0:04:33.78    \nframe=  100 fps=0.4 q=24.1 size=    4864KiB time=00:00:03.26 bitrate=12197.8kbits/s speed=0.0119x elapsed=0:04:34.31    \nframe=  101 fps=0.4 q=26.8 size=    4864KiB time=00:00:03.30 bitrate=12074.6kbits/s speed=0.012x elapsed=0:04:34.88    \nframe=  101 fps=0.4 q=26.8 size=    4864KiB time=00:00:03.30 bitrate=12074.6kbits/s speed=0.012x elapsed=0:04:35.43    \nframe=  101 fps=0.4 q=26.8 size=    4864KiB time=00:00:03.30 bitrate=12074.6kbits/s speed=0.012x elapsed=0:04:35.94    \nframe=  101 fps=0.4 q=26.8 size=    4864KiB time=00:00:03.30 bitrate=12074.6kbits/s speed=0.0119x elapsed=0:04:36.45    \nframe=  102 fps=0.4 q=27.2 size=    4864KiB time=00:00:03.33 bitrate=11953.9kbits/s speed=0.012x elapsed=0:04:36.98    \nframe=  102 fps=0.4 q=27.2 size=    4864KiB time=00:00:03.33 bitrate=11953.9kbits/s speed=0.012x elapsed=0:04:37.50    \nframe=  102 fps=0.4 q=27.2 size=    4864KiB time=00:00:03.33 bitrate=11953.9kbits/s speed=0.012x elapsed=0:04:38.02    \nframe=  102 fps=0.4 q=27.2 size=    4864KiB time=00:00:03.33 bitrate=11953.9kbits/s speed=0.012x elapsed=0:04:38.59    \nframe=  103 fps=0.4 q=19.9 size=    4864KiB time=00:00:03.36 bitrate=11835.5kbits/s speed=0.0121x elapsed=0:04:39.23    \nframe=  103 fps=0.4 q=19.9 size=    4864KiB time=00:00:03.36 bitrate=11835.5kbits/s speed=0.012x elapsed=0:04:39.78    \nframe=  104 fps=0.4 q=24.1 size=    5120KiB time=00:00:03.40 bitrate=12336.3kbits/s speed=0.0121x elapsed=0:04:40.33    \nframe=  104 fps=0.4 q=24.1 size=    5120KiB time=00:00:03.40 bitrate=12336.3kbits/s speed=0.0121x elapsed=0:04:40.94    \nframe=  104 fps=0.4 q=24.1 size=    5120KiB time=00:00:03.40 bitrate=12336.3kbits/s speed=0.0121x elapsed=0:04:41.49    \nframe=  104 fps=0.4 q=24.1 size=    5120KiB time=00:00:03.40 bitrate=12336.3kbits/s speed=0.0121x elapsed=0:04:42.02    \nframe=  104 fps=0.4 q=24.1 size=    5120KiB time=00:00:03.40 bitrate=12336.3kbits/s speed=0.012x elapsed=0:04:42.56    \nframe=  104 fps=0.4 q=24.1 size=    5120KiB time=00:00:03.40 bitrate=12336.3kbits/s speed=0.012x elapsed=0:04:43.07    \nframe=  105 fps=0.4 q=27.0 size=    5120KiB time=00:00:03.43 bitrate=12216.5kbits/s speed=0.0121x elapsed=0:04:43.65    \nframe=  105 fps=0.4 q=27.0 size=    5120KiB time=00:00:03.43 bitrate=12216.5kbits/s speed=0.0121x elapsed=0:04:44.17    \nframe=  106 fps=0.4 q=27.3 size=    5120KiB time=00:00:03.46 bitrate=12099.1kbits/s speed=0.0122x elapsed=0:04:44.71    \nframe=  106 fps=0.4 q=27.3 size=    5120KiB time=00:00:03.46 bitrate=12099.1kbits/s speed=0.0122x elapsed=0:04:45.24    \nframe=  106 fps=0.4 q=27.3 size=    5120KiB time=00:00:03.46 bitrate=12099.1kbits/s speed=0.0121x elapsed=0:04:45.80    \nframe=  106 fps=0.4 q=27.3 size=    5120KiB time=00:00:03.46 bitrate=12099.1kbits/s speed=0.0121x elapsed=0:04:46.32    \nframe=  107 fps=0.4 q=19.7 size=    5120KiB time=00:00:03.50 bitrate=11983.8kbits/s speed=0.0122x elapsed=0:04:46.87    \nframe=  107 fps=0.4 q=19.7 size=    5120KiB time=00:00:03.50 bitrate=11983.8kbits/s speed=0.0122x elapsed=0:04:47.42    \nframe=  107 fps=0.4 q=19.7 size=    5120KiB time=00:00:03.50 bitrate=11983.8kbits/s speed=0.0122x elapsed=0:04:47.95    \nframe=  107 fps=0.4 q=19.7 size=    5120KiB time=00:00:03.50 bitrate=11983.8kbits/s speed=0.0121x elapsed=0:04:48.55    \nframe=  107 fps=0.4 q=19.7 size=    5120KiB time=00:00:03.50 bitrate=11983.8kbits/s speed=0.0121x elapsed=0:04:49.07    \nframe=  107 fps=0.4 q=19.7 size=    5120KiB time=00:00:03.50 bitrate=11983.8kbits/s speed=0.0121x elapsed=0:04:49.61    \nframe=  108 fps=0.4 q=24.1 size=    5120KiB time=00:00:03.53 bitrate=11870.8kbits/s speed=0.0122x elapsed=0:04:50.15    \nframe=  108 fps=0.4 q=24.1 size=    5120KiB time=00:00:03.53 bitrate=11870.8kbits/s speed=0.0122x elapsed=0:04:50.70    \nframe=  108 fps=0.4 q=24.1 size=    5120KiB time=00:00:03.53 bitrate=11870.8kbits/s speed=0.0121x elapsed=0:04:51.23    \nframe=  108 fps=0.4 q=24.1 size=    5120KiB time=00:00:03.53 bitrate=11870.8kbits/s speed=0.0121x elapsed=0:04:51.79    \nframe=  108 fps=0.4 q=24.1 size=    5120KiB time=00:00:03.53 bitrate=11870.8kbits/s speed=0.0121x elapsed=0:04:52.31    \nframe=  108 fps=0.4 q=24.1 size=    5120KiB time=00:00:03.53 bitrate=11870.8kbits/s speed=0.0121x elapsed=0:04:52.84    \nframe=  108 fps=0.4 q=24.1 size=    5120KiB time=00:00:03.53 bitrate=11870.8kbits/s speed=0.012x elapsed=0:04:53.36    \nframe=  109 fps=0.4 q=27.0 size=    5120KiB time=00:00:03.56 bitrate=11759.8kbits/s speed=0.0121x elapsed=0:04:53.93    \nframe=  109 fps=0.4 q=27.0 size=    5120KiB time=00:00:03.56 bitrate=11759.8kbits/s speed=0.0121x elapsed=0:04:54.49    \nframe=  109 fps=0.4 q=27.0 size=    5120KiB time=00:00:03.56 bitrate=11759.8kbits/s speed=0.0121x elapsed=0:04:55.02    \nframe=  109 fps=0.4 q=27.0 size=    5120KiB time=00:00:03.56 bitrate=11759.8kbits/s speed=0.0121x elapsed=0:04:55.55    \nframe=  110 fps=0.4 q=19.8 size=    5120KiB time=00:00:03.60 bitrate=11650.9kbits/s speed=0.0122x elapsed=0:04:56.07    \nframe=  110 fps=0.4 q=19.8 size=    5120KiB time=00:00:03.60 bitrate=11650.9kbits/s speed=0.0121x elapsed=0:04:56.62    \nframe=  111 fps=0.4 q=24.2 size=    5376KiB time=00:00:03.63 bitrate=12121.3kbits/s speed=0.0122x elapsed=0:04:57.19    \nframe=  111 fps=0.4 q=24.2 size=    5376KiB time=00:00:03.63 bitrate=12121.3kbits/s speed=0.0122x elapsed=0:04:57.72    \nframe=  111 fps=0.4 q=24.2 size=    5376KiB time=00:00:03.63 bitrate=12121.3kbits/s speed=0.0122x elapsed=0:04:58.29    \nframe=  111 fps=0.4 q=24.2 size=    5376KiB time=00:00:03.63 bitrate=12121.3kbits/s speed=0.0122x elapsed=0:04:58.84    \nframe=  111 fps=0.4 q=24.2 size=    5376KiB time=00:00:03.63 bitrate=12121.3kbits/s speed=0.0121x elapsed=0:04:59.37    \nframe=  111 fps=0.4 q=24.2 size=    5376KiB time=00:00:03.63 bitrate=12121.3kbits/s speed=0.0121x elapsed=0:04:59.96    \nframe=  112 fps=0.4 q=27.1 size=    5376KiB time=00:00:03.66 bitrate=12011.1kbits/s speed=0.0122x elapsed=0:05:00.48    \nframe=  112 fps=0.4 q=27.1 size=    5376KiB time=00:00:03.66 bitrate=12011.1kbits/s speed=0.0122x elapsed=0:05:01.00    \nframe=  112 fps=0.4 q=27.1 size=    5376KiB time=00:00:03.66 bitrate=12011.1kbits/s speed=0.0122x elapsed=0:05:01.52    \nframe=  113 fps=0.4 q=27.4 size=    5376KiB time=00:00:03.70 bitrate=11902.8kbits/s speed=0.0122x elapsed=0:05:02.10    \nframe=  113 fps=0.4 q=27.4 size=    5376KiB time=00:00:03.70 bitrate=11902.8kbits/s speed=0.0122x elapsed=0:05:02.64    \nframe=  113 fps=0.4 q=27.4 size=    5376KiB time=00:00:03.70 bitrate=11902.8kbits/s speed=0.0122x elapsed=0:05:03.16    \nframe=  113 fps=0.4 q=27.4 size=    5376KiB time=00:00:03.70 bitrate=11902.8kbits/s speed=0.0122x elapsed=0:05:03.70    \nframe=  114 fps=0.4 q=19.9 size=    5376KiB time=00:00:03.73 bitrate=11796.6kbits/s speed=0.0123x elapsed=0:05:04.21    \nframe=  114 fps=0.4 q=19.9 size=    5376KiB time=00:00:03.73 bitrate=11796.6kbits/s speed=0.0123x elapsed=0:05:04.74    \nframe=  114 fps=0.4 q=19.9 size=    5376KiB time=00:00:03.73 bitrate=11796.6kbits/s speed=0.0122x elapsed=0:05:05.28    \nframe=  114 fps=0.4 q=19.9 size=    5376KiB time=00:00:03.73 bitrate=11796.6kbits/s speed=0.0122x elapsed=0:05:05.79    \nframe=  114 fps=0.4 q=19.9 size=    5376KiB time=00:00:03.73 bitrate=11796.6kbits/s speed=0.0122x elapsed=0:05:06.32    \nframe=  114 fps=0.4 q=19.9 size=    5376KiB time=00:00:03.73 bitrate=11796.6kbits/s speed=0.0122x elapsed=0:05:06.87    \nframe=  114 fps=0.4 q=19.9 size=    5376KiB time=00:00:03.73 bitrate=11796.6kbits/s speed=0.0121x elapsed=0:05:07.41    \nframe=  114 fps=0.4 q=19.9 size=    5376KiB time=00:00:03.73 bitrate=11796.6kbits/s speed=0.0121x elapsed=0:05:07.94    \nframe=  115 fps=0.4 q=24.3 size=    5632KiB time=00:00:03.76 bitrate=12248.9kbits/s speed=0.0122x elapsed=0:05:08.51    \nframe=  115 fps=0.4 q=24.3 size=    5632KiB time=00:00:03.76 bitrate=12248.9kbits/s speed=0.0122x elapsed=0:05:09.07    \nframe=  115 fps=0.4 q=24.3 size=    5632KiB time=00:00:03.76 bitrate=12248.9kbits/s speed=0.0122x elapsed=0:05:09.62    \nframe=  115 fps=0.4 q=24.3 size=    5632KiB time=00:00:03.76 bitrate=12248.9kbits/s speed=0.0121x elapsed=0:05:10.13    \nframe=  116 fps=0.4 q=27.3 size=    5632KiB time=00:00:03.76 bitrate=12248.9kbits/s speed=0.0121x elapsed=0:05:10.66    \nframe=  116 fps=0.4 q=27.3 size=    5632KiB time=00:00:03.80 bitrate=12141.5kbits/s speed=0.0122x elapsed=0:05:11.19    \nframe=  116 fps=0.4 q=27.3 size=    5632KiB time=00:00:03.80 bitrate=12141.5kbits/s speed=0.0122x elapsed=0:05:11.71    \nframe=  116 fps=0.4 q=27.3 size=    5632KiB time=00:00:03.80 bitrate=12141.5kbits/s speed=0.0122x elapsed=0:05:12.24    \nframe=  116 fps=0.4 q=27.3 size=    5632KiB time=00:00:03.80 bitrate=12141.5kbits/s speed=0.0121x elapsed=0:05:12.78    \nframe=  116 fps=0.4 q=27.3 size=    5632KiB time=00:00:03.80 bitrate=12141.5kbits/s speed=0.0121x elapsed=0:05:13.33    \nframe=  117 fps=0.4 q=27.5 size=    5632KiB time=00:00:03.83 bitrate=12035.9kbits/s speed=0.0122x elapsed=0:05:13.89    \nframe=  117 fps=0.4 q=27.5 size=    5632KiB time=00:00:03.83 bitrate=12035.9kbits/s speed=0.0122x elapsed=0:05:14.42    \nframe=  117 fps=0.4 q=27.5 size=    5632KiB time=00:00:03.83 bitrate=12035.9kbits/s speed=0.0122x elapsed=0:05:15.01    \nframe=  117 fps=0.4 q=27.5 size=    5632KiB time=00:00:03.83 bitrate=12035.9kbits/s speed=0.0121x elapsed=0:05:15.53    \nframe=  117 fps=0.4 q=27.5 size=    5632KiB time=00:00:03.83 bitrate=12035.9kbits/s speed=0.0121x elapsed=0:05:16.07    \nframe=  117 fps=0.4 q=27.5 size=    5632KiB time=00:00:03.83 bitrate=12035.9kbits/s speed=0.0121x elapsed=0:05:16.62    \nframe=  117 fps=0.4 q=27.5 size=    5632KiB time=00:00:03.83 bitrate=12035.9kbits/s speed=0.0121x elapsed=0:05:17.16    \nframe=  117 fps=0.4 q=27.5 size=    5632KiB time=00:00:03.83 bitrate=12035.9kbits/s speed=0.0121x elapsed=0:05:17.68    \nframe=  118 fps=0.4 q=20.2 size=    5632KiB time=00:00:03.86 bitrate=11932.2kbits/s speed=0.0121x elapsed=0:05:18.26    \nframe=  118 fps=0.4 q=20.2 size=    5632KiB time=00:00:03.86 bitrate=11932.2kbits/s speed=0.0121x elapsed=0:05:18.81    \nframe=  118 fps=0.4 q=20.2 size=    5632KiB time=00:00:03.86 bitrate=11932.2kbits/s speed=0.0121x elapsed=0:05:19.39    \nframe=  118 fps=0.4 q=20.2 size=    5632KiB time=00:00:03.86 bitrate=11932.2kbits/s speed=0.0121x elapsed=0:05:19.94    \nframe=  118 fps=0.4 q=20.2 size=    5632KiB time=00:00:03.86 bitrate=11932.2kbits/s speed=0.0121x elapsed=0:05:20.46    \nframe=  118 fps=0.4 q=20.2 size=    5632KiB time=00:00:03.86 bitrate=11932.2kbits/s speed=0.012x elapsed=0:05:21.02    \nframe=  118 fps=0.4 q=20.2 size=    5632KiB time=00:00:03.86 bitrate=11932.2kbits/s speed=0.012x elapsed=0:05:21.57    \nframe=  118 fps=0.4 q=20.2 size=    5632KiB time=00:00:03.86 bitrate=11932.2kbits/s speed=0.012x elapsed=0:05:22.10    \nframe=  118 fps=0.4 q=20.2 size=    5632KiB time=00:00:03.86 bitrate=11932.2kbits/s speed=0.012x elapsed=0:05:22.66    \nframe=  119 fps=0.4 q=24.2 size=    5888KiB time=00:00:03.90 bitrate=12367.9kbits/s speed=0.0121x elapsed=0:05:23.23    \nframe=  119 fps=0.4 q=24.2 size=    5888KiB time=00:00:03.90 bitrate=12367.9kbits/s speed=0.012x elapsed=0:05:23.76    \nframe=  119 fps=0.4 q=24.2 size=    5888KiB time=00:00:03.90 bitrate=12367.9kbits/s speed=0.012x elapsed=0:05:24.29    \nframe=  120 fps=0.4 q=27.5 size=    5888KiB time=00:00:03.93 bitrate=12263.1kbits/s speed=0.0121x elapsed=0:05:24.82    \nframe=  120 fps=0.4 q=27.5 size=    5888KiB time=00:00:03.93 bitrate=12263.1kbits/s speed=0.0121x elapsed=0:05:25.39    \nframe=  121 fps=0.4 q=27.5 size=    5888KiB time=00:00:03.96 bitrate=12160.0kbits/s speed=0.0122x elapsed=0:05:25.93    \nframe=  121 fps=0.4 q=27.5 size=    5888KiB time=00:00:03.96 bitrate=12160.0kbits/s speed=0.0122x elapsed=0:05:26.46    \nframe=  121 fps=0.4 q=27.5 size=    5888KiB time=00:00:03.96 bitrate=12160.0kbits/s speed=0.0121x elapsed=0:05:27.00    \nframe=  121 fps=0.4 q=27.5 size=    5888KiB time=00:00:03.96 bitrate=12160.0kbits/s speed=0.0121x elapsed=0:05:27.56    \nframe=  121 fps=0.4 q=27.5 size=    5888KiB time=00:00:03.96 bitrate=12160.0kbits/s speed=0.0121x elapsed=0:05:28.10    \nframe=  121 fps=0.4 q=27.5 size=    5888KiB time=00:00:03.96 bitrate=12160.0kbits/s speed=0.0121x elapsed=0:05:28.67    \nframe=  121 fps=0.4 q=27.5 size=    5888KiB time=00:00:03.96 bitrate=12160.0kbits/s speed=0.012x elapsed=0:05:29.21    \nframe=  121 fps=0.4 q=27.5 size=    5888KiB time=00:00:03.96 bitrate=12160.0kbits/s speed=0.012x elapsed=0:05:29.78    \nframe=  121 fps=0.4 q=27.5 size=    5888KiB time=00:00:03.96 bitrate=12160.0kbits/s speed=0.012x elapsed=0:05:30.33    \nframe=  121 fps=0.4 q=27.5 size=    5888KiB time=00:00:03.96 bitrate=12160.0kbits/s speed=0.012x elapsed=0:05:30.85    \nframe=  121 fps=0.4 q=27.5 size=    5888KiB time=00:00:03.96 bitrate=12160.0kbits/s speed=0.012x elapsed=0:05:31.40    \nframe=  121 fps=0.4 q=27.5 size=    5888KiB time=00:00:03.96 bitrate=12160.0kbits/s speed=0.0119x elapsed=0:05:31.99    \nframe=  122 fps=0.4 q=20.1 size=    5888KiB time=00:00:04.00 bitrate=12058.7kbits/s speed=0.012x elapsed=0:05:32.56    \nframe=  122 fps=0.4 q=20.1 size=    5888KiB time=00:00:04.00 bitrate=12058.7kbits/s speed=0.012x elapsed=0:05:33.10    \nframe=  122 fps=0.4 q=20.1 size=    5888KiB time=00:00:04.00 bitrate=12058.7kbits/s speed=0.012x elapsed=0:05:33.64    \nframe=  122 fps=0.4 q=20.1 size=    5888KiB time=00:00:04.00 bitrate=12058.7kbits/s speed=0.012x elapsed=0:05:34.19    \nframe=  122 fps=0.4 q=20.1 size=    5888KiB time=00:00:04.00 bitrate=12058.7kbits/s speed=0.0119x elapsed=0:05:34.74    \nframe=  122 fps=0.4 q=20.1 size=    5888KiB time=00:00:04.00 bitrate=12058.7kbits/s speed=0.0119x elapsed=0:05:35.29    \nframe=  123 fps=0.4 q=26.0 size=    5888KiB time=00:00:04.03 bitrate=11959.1kbits/s speed=0.012x elapsed=0:05:35.80    \nframe=  123 fps=0.4 q=26.0 size=    5888KiB time=00:00:04.03 bitrate=11959.1kbits/s speed=0.012x elapsed=0:05:36.32    \nframe=  123 fps=0.4 q=26.0 size=    5888KiB time=00:00:04.03 bitrate=11959.1kbits/s speed=0.012x elapsed=0:05:36.87    \nframe=  123 fps=0.4 q=26.0 size=    5888KiB time=00:00:04.03 bitrate=11959.1kbits/s speed=0.012x elapsed=0:05:37.46    \nframe=  123 fps=0.4 q=26.0 size=    5888KiB time=00:00:04.03 bitrate=11959.1kbits/s speed=0.0119x elapsed=0:05:38.01    \nframe=  124 fps=0.4 q=27.2 size=    6144KiB time=00:00:04.06 bitrate=12376.7kbits/s speed=0.012x elapsed=0:05:38.58    \nframe=  124 fps=0.4 q=27.2 size=    6144KiB time=00:00:04.06 bitrate=12376.7kbits/s speed=0.012x elapsed=0:05:39.13    \nframe=  124 fps=0.4 q=27.2 size=    6144KiB time=00:00:04.06 bitrate=12376.7kbits/s speed=0.012x elapsed=0:05:39.83    \nframe=  124 fps=0.4 q=27.2 size=    6144KiB time=00:00:04.06 bitrate=12376.7kbits/s speed=0.0119x elapsed=0:05:40.46    \nframe=  124 fps=0.4 q=27.2 size=    6144KiB time=00:00:04.06 bitrate=12376.7kbits/s speed=0.0119x elapsed=0:05:41.04    \nframe=  124 fps=0.4 q=27.2 size=    6144KiB time=00:00:04.06 bitrate=12376.7kbits/s speed=0.0119x elapsed=0:05:41.60    \nframe=  124 fps=0.4 q=27.2 size=    6144KiB time=00:00:04.06 bitrate=12376.7kbits/s speed=0.0119x elapsed=0:05:42.20    \nframe=  124 fps=0.4 q=27.2 size=    6144KiB time=00:00:04.06 bitrate=12376.7kbits/s speed=0.0119x elapsed=0:05:42.77    \nframe=  124 fps=0.4 q=27.2 size=    6144KiB time=00:00:04.06 bitrate=12376.7kbits/s speed=0.0118x elapsed=0:05:43.37    \nframe=  124 fps=0.4 q=27.2 size=    6144KiB time=00:00:04.06 bitrate=12376.7kbits/s speed=0.0118x elapsed=0:05:43.94    \nframe=  124 fps=0.4 q=27.2 size=    6144KiB time=00:00:04.06 bitrate=12376.7kbits/s speed=0.0118x elapsed=0:05:44.53    \nframe=  124 fps=0.4 q=27.2 size=    6144KiB time=00:00:04.06 bitrate=12376.7kbits/s speed=0.0118x elapsed=0:05:45.22    \nframe=  124 fps=0.4 q=27.2 size=    6144KiB time=00:00:04.06 bitrate=12376.7kbits/s speed=0.0118x elapsed=0:05:45.88    \nframe=  124 fps=0.4 q=27.2 size=    6144KiB time=00:00:04.06 bitrate=12376.7kbits/s speed=0.0117x elapsed=0:05:46.41    \nframe=  124 fps=0.4 q=27.2 size=    6144KiB time=00:00:04.06 bitrate=12376.7kbits/s speed=0.0117x elapsed=0:05:47.04    \nframe=  124 fps=0.4 q=27.2 size=    6144KiB time=00:00:04.06 bitrate=12376.7kbits/s speed=0.0117x elapsed=0:05:47.73    \nframe=  124 fps=0.4 q=27.2 size=    6144KiB time=00:00:04.06 bitrate=12376.7kbits/s speed=0.0117x elapsed=0:05:48.35    \nframe=  124 fps=0.4 q=27.2 size=    6144KiB time=00:00:04.06 bitrate=12376.7kbits/s speed=0.0117x elapsed=0:05:48.92    \nframe=  125 fps=0.4 q=27.4 size=    6144KiB time=00:00:04.10 bitrate=12276.1kbits/s speed=0.0117x elapsed=0:05:49.50    \nframe=  125 fps=0.4 q=27.4 size=    6144KiB time=00:00:04.10 bitrate=12276.1kbits/s speed=0.0117x elapsed=0:05:50.11    \nframe=  125 fps=0.4 q=27.4 size=    6144KiB time=00:00:04.10 bitrate=12276.1kbits/s speed=0.0117x elapsed=0:05:50.63    \nframe=  125 fps=0.4 q=27.4 size=    6144KiB time=00:00:04.10 bitrate=12276.1kbits/s speed=0.0117x elapsed=0:05:51.15    \nframe=  125 fps=0.4 q=27.4 size=    6144KiB time=00:00:04.10 bitrate=12276.1kbits/s speed=0.0117x elapsed=0:05:51.68    \nframe=  125 fps=0.4 q=27.4 size=    6144KiB time=00:00:04.10 bitrate=12276.1kbits/s speed=0.0116x elapsed=0:05:52.20    \nframe=  125 fps=0.4 q=27.4 size=    6144KiB time=00:00:04.10 bitrate=12276.1kbits/s speed=0.0116x elapsed=0:05:52.78    \nframe=  125 fps=0.4 q=27.4 size=    6144KiB time=00:00:04.10 bitrate=12276.1kbits/s speed=0.0116x elapsed=0:05:53.30    \nframe=  126 fps=0.4 q=27.5 size=    6144KiB time=00:00:04.13 bitrate=12177.1kbits/s speed=0.0117x elapsed=0:05:53.86    \nframe=  126 fps=0.4 q=27.5 size=    6144KiB time=00:00:04.13 bitrate=12177.1kbits/s speed=0.0117x elapsed=0:05:54.41    \nframe=  126 fps=0.4 q=27.5 size=    6144KiB time=00:00:04.13 bitrate=12177.1kbits/s speed=0.0116x elapsed=0:05:54.98    \nframe=  126 fps=0.4 q=27.5 size=    6144KiB time=00:00:04.13 bitrate=12177.1kbits/s speed=0.0116x elapsed=0:05:55.54    \nframe=  126 fps=0.4 q=27.5 size=    6144KiB time=00:00:04.13 bitrate=12177.1kbits/s speed=0.0116x elapsed=0:05:56.13    \nframe=  126 fps=0.4 q=27.5 size=    6144KiB time=00:00:04.13 bitrate=12177.1kbits/s speed=0.0116x elapsed=0:05:56.76    \nframe=  126 fps=0.4 q=27.5 size=    6144KiB time=00:00:04.13 bitrate=12177.1kbits/s speed=0.0116x elapsed=0:05:57.37    \nframe=  127 fps=0.4 q=20.3 size=    6144KiB time=00:00:04.16 bitrate=12079.7kbits/s speed=0.0116x elapsed=0:05:57.88    \nframe=  128 fps=0.4 q=24.6 size=    6144KiB time=00:00:04.20 bitrate=11983.8kbits/s speed=0.0117x elapsed=0:05:58.41    \nframe=  128 fps=0.4 q=24.6 size=    6144KiB time=00:00:04.20 bitrate=11983.8kbits/s speed=0.0117x elapsed=0:05:58.96    \nframe=  128 fps=0.4 q=24.6 size=    6144KiB time=00:00:04.20 bitrate=11983.8kbits/s speed=0.0117x elapsed=0:05:59.52    \nframe=  128 fps=0.4 q=24.6 size=    6144KiB time=00:00:04.20 bitrate=11983.8kbits/s speed=0.0117x elapsed=0:06:00.09    \nframe=  128 fps=0.4 q=24.6 size=    6144KiB time=00:00:04.20 bitrate=11983.8kbits/s speed=0.0116x elapsed=0:06:00.64    \nframe=  128 fps=0.4 q=24.6 size=    6144KiB time=00:00:04.20 bitrate=11983.8kbits/s speed=0.0116x elapsed=0:06:01.19    \nframe=  128 fps=0.4 q=24.6 size=    6144KiB time=00:00:04.20 bitrate=11983.8kbits/s speed=0.0116x elapsed=0:06:01.72    \nframe=  129 fps=0.4 q=27.4 size=    6400KiB time=00:00:04.23 bitrate=12384.8kbits/s speed=0.0117x elapsed=0:06:02.30    \nframe=  129 fps=0.4 q=27.4 size=    6400KiB time=00:00:04.23 bitrate=12384.8kbits/s speed=0.0117x elapsed=0:06:02.81    \nframe=  129 fps=0.4 q=27.4 size=    6400KiB time=00:00:04.23 bitrate=12384.8kbits/s speed=0.0117x elapsed=0:06:03.33    \nframe=  129 fps=0.4 q=27.4 size=    6400KiB time=00:00:04.23 bitrate=12384.8kbits/s speed=0.0116x elapsed=0:06:03.87    \nframe=  129 fps=0.4 q=27.4 size=    6400KiB time=00:00:04.23 bitrate=12384.8kbits/s speed=0.0116x elapsed=0:06:04.49    \nframe=  130 fps=0.4 q=27.7 size=    6400KiB time=00:00:04.26 bitrate=12288.1kbits/s speed=0.0117x elapsed=0:06:05.04    \nframe=  131 fps=0.4 q=20.0 size=    6400KiB time=00:00:04.30 bitrate=12192.8kbits/s speed=0.0118x elapsed=0:06:05.56    \nframe=  131 fps=0.4 q=20.0 size=    6400KiB time=00:00:04.30 bitrate=12192.8kbits/s speed=0.0117x elapsed=0:06:06.14    \nframe=  131 fps=0.4 q=20.0 size=    6400KiB time=00:00:04.30 bitrate=12192.8kbits/s speed=0.0117x elapsed=0:06:06.66    \nframe=  132 fps=0.4 q=24.4 size=    6400KiB time=00:00:04.33 bitrate=12099.0kbits/s speed=0.0118x elapsed=0:06:07.19    \nframe=  132 fps=0.4 q=24.4 size=    6400KiB time=00:00:04.33 bitrate=12099.0kbits/s speed=0.0118x elapsed=0:06:07.80    \nframe=  132 fps=0.4 q=24.4 size=    6400KiB time=00:00:04.33 bitrate=12099.0kbits/s speed=0.0118x elapsed=0:06:08.35    \nframe=  132 fps=0.4 q=24.4 size=    6400KiB time=00:00:04.33 bitrate=12099.0kbits/s speed=0.0117x elapsed=0:06:08.92    \nframe=  132 fps=0.4 q=24.4 size=    6400KiB time=00:00:04.33 bitrate=12099.0kbits/s speed=0.0117x elapsed=0:06:09.42    \nframe=  133 fps=0.4 q=27.4 size=    6656KiB time=00:00:04.36 bitrate=12486.9kbits/s speed=0.0118x elapsed=0:06:09.96    \nframe=  133 fps=0.4 q=27.4 size=    6656KiB time=00:00:04.36 bitrate=12486.9kbits/s speed=0.0118x elapsed=0:06:10.53    \nframe=  133 fps=0.4 q=27.4 size=    6656KiB time=00:00:04.36 bitrate=12486.9kbits/s speed=0.0118x elapsed=0:06:11.05    \nframe=  133 fps=0.4 q=27.4 size=    6656KiB time=00:00:04.36 bitrate=12486.9kbits/s speed=0.0118x elapsed=0:06:11.57    \nframe=  133 fps=0.4 q=27.4 size=    6656KiB time=00:00:04.36 bitrate=12486.9kbits/s speed=0.0117x elapsed=0:06:12.08    \nframe=  134 fps=0.4 q=27.5 size=    6656KiB time=00:00:04.40 bitrate=12392.3kbits/s speed=0.0118x elapsed=0:06:12.62    \nframe=  134 fps=0.4 q=27.5 size=    6656KiB time=00:00:04.40 bitrate=12392.3kbits/s speed=0.0118x elapsed=0:06:13.18    \nframe=  134 fps=0.4 q=27.5 size=    6656KiB time=00:00:04.40 bitrate=12392.3kbits/s speed=0.0118x elapsed=0:06:13.71    \nframe=  135 fps=0.4 q=20.4 size=    6656KiB time=00:00:04.43 bitrate=12299.2kbits/s speed=0.0118x elapsed=0:06:14.24    \nframe=  135 fps=0.4 q=20.4 size=    6656KiB time=00:00:04.43 bitrate=12299.2kbits/s speed=0.0118x elapsed=0:06:14.77    \nframe=  135 fps=0.4 q=20.4 size=    6656KiB time=00:00:04.43 bitrate=12299.2kbits/s speed=0.0118x elapsed=0:06:15.28    \nframe=  136 fps=0.4 q=26.2 size=    6656KiB time=00:00:04.46 bitrate=12207.4kbits/s speed=0.0119x elapsed=0:06:15.80    \nframe=  136 fps=0.4 q=26.2 size=    6656KiB time=00:00:04.46 bitrate=12207.4kbits/s speed=0.0119x elapsed=0:06:16.34    \nframe=  137 fps=0.4 q=27.4 size=    6656KiB time=00:00:04.50 bitrate=12117.0kbits/s speed=0.0119x elapsed=0:06:16.85    \nframe=  138 fps=0.4 q=27.6 size=    6656KiB time=00:00:04.53 bitrate=12027.9kbits/s speed=0.012x elapsed=0:06:17.41    \nframe=  138 fps=0.4 q=27.6 size=    6656KiB time=00:00:04.53 bitrate=12027.9kbits/s speed=0.012x elapsed=0:06:17.94    \nframe=  138 fps=0.4 q=27.6 size=    6656KiB time=00:00:04.53 bitrate=12027.9kbits/s speed=0.012x elapsed=0:06:18.44    \nframe=  138 fps=0.4 q=27.6 size=    6656KiB time=00:00:04.53 bitrate=12027.9kbits/s speed=0.012x elapsed=0:06:18.99    \nframe=  139 fps=0.4 q=27.7 size=    6656KiB time=00:00:04.56 bitrate=11940.1kbits/s speed=0.012x elapsed=0:06:19.50    \nframe=  139 fps=0.4 q=27.7 size=    6656KiB time=00:00:04.56 bitrate=11940.1kbits/s speed=0.012x elapsed=0:06:20.04    \nframe=  139 fps=0.4 q=27.7 size=    6656KiB time=00:00:04.56 bitrate=11940.1kbits/s speed=0.012x elapsed=0:06:20.58    \nframe=  139 fps=0.4 q=27.7 size=    6656KiB time=00:00:04.56 bitrate=11940.1kbits/s speed=0.012x elapsed=0:06:21.11    \nframe=  140 fps=0.4 q=21.0 size=    6656KiB time=00:00:04.60 bitrate=11853.5kbits/s speed=0.0121x elapsed=0:06:21.67    \nframe=  140 fps=0.4 q=21.0 size=    6656KiB time=00:00:04.60 bitrate=11853.5kbits/s speed=0.012x elapsed=0:06:22.19    \nframe=  141 fps=0.4 q=24.7 size=    6912KiB time=00:00:04.63 bitrate=12220.9kbits/s speed=0.0121x elapsed=0:06:22.75    \nframe=  141 fps=0.4 q=24.7 size=    6912KiB time=00:00:04.63 bitrate=12220.9kbits/s speed=0.0121x elapsed=0:06:23.28    \nframe=  141 fps=0.4 q=24.7 size=    6912KiB time=00:00:04.63 bitrate=12220.9kbits/s speed=0.0121x elapsed=0:06:23.81    \nframe=  141 fps=0.4 q=24.7 size=    6912KiB time=00:00:04.63 bitrate=12220.9kbits/s speed=0.0121x elapsed=0:06:24.32    \nframe=  141 fps=0.4 q=24.7 size=    6912KiB time=00:00:04.63 bitrate=12220.9kbits/s speed=0.012x elapsed=0:06:24.86    \nframe=  142 fps=0.4 q=27.6 size=    6912KiB time=00:00:04.66 bitrate=12133.6kbits/s speed=0.0121x elapsed=0:06:25.36    \nframe=  142 fps=0.4 q=27.6 size=    6912KiB time=00:00:04.66 bitrate=12133.6kbits/s speed=0.0121x elapsed=0:06:25.96    \nframe=  142 fps=0.4 q=27.6 size=    6912KiB time=00:00:04.66 bitrate=12133.6kbits/s speed=0.0121x elapsed=0:06:26.52    \nframe=  142 fps=0.4 q=27.6 size=    6912KiB time=00:00:04.66 bitrate=12133.6kbits/s speed=0.0121x elapsed=0:06:27.04    \nframe=  142 fps=0.4 q=27.6 size=    6912KiB time=00:00:04.66 bitrate=12133.6kbits/s speed=0.012x elapsed=0:06:27.61    \nframe=  142 fps=0.4 q=27.6 size=    6912KiB time=00:00:04.66 bitrate=12133.6kbits/s speed=0.012x elapsed=0:06:28.13    \nframe=  143 fps=0.4 q=27.8 size=    6912KiB time=00:00:04.70 bitrate=12047.5kbits/s speed=0.0121x elapsed=0:06:28.68    \nframe=  144 fps=0.4 q=21.6 size=    6912KiB time=00:00:04.73 bitrate=11962.7kbits/s speed=0.0122x elapsed=0:06:29.26    \nframe=  144 fps=0.4 q=21.6 size=    6912KiB time=00:00:04.73 bitrate=11962.7kbits/s speed=0.0121x elapsed=0:06:29.80    \nframe=  145 fps=0.4 q=26.4 size=    7168KiB time=00:00:04.76 bitrate=12319.0kbits/s speed=0.0122x elapsed=0:06:30.34    \nframe=  145 fps=0.4 q=26.4 size=    7168KiB time=00:00:04.76 bitrate=12319.0kbits/s speed=0.0122x elapsed=0:06:30.88    \nframe=  145 fps=0.4 q=26.4 size=    7168KiB time=00:00:04.76 bitrate=12319.0kbits/s speed=0.0122x elapsed=0:06:31.43    \nframe=  145 fps=0.4 q=26.4 size=    7168KiB time=00:00:04.76 bitrate=12319.0kbits/s speed=0.0122x elapsed=0:06:32.02    \nframe=  145 fps=0.4 q=26.4 size=    7168KiB time=00:00:04.76 bitrate=12319.0kbits/s speed=0.0121x elapsed=0:06:32.58    \nframe=  145 fps=0.4 q=26.4 size=    7168KiB time=00:00:04.76 bitrate=12319.0kbits/s speed=0.0121x elapsed=0:06:33.15    \nframe=  145 fps=0.4 q=26.4 size=    7168KiB time=00:00:04.76 bitrate=12319.0kbits/s speed=0.0121x elapsed=0:06:33.71    \nframe=  145 fps=0.4 q=26.4 size=    7168KiB time=00:00:04.76 bitrate=12319.0kbits/s speed=0.0121x elapsed=0:06:34.25    \nframe=  146 fps=0.4 q=27.7 size=    7168KiB time=00:00:04.80 bitrate=12233.5kbits/s speed=0.0122x elapsed=0:06:34.78    \nframe=  146 fps=0.4 q=27.7 size=    7168KiB time=00:00:04.80 bitrate=12233.5kbits/s speed=0.0121x elapsed=0:06:35.31    \nframe=  146 fps=0.4 q=27.7 size=    7168KiB time=00:00:04.80 bitrate=12233.5kbits/s speed=0.0121x elapsed=0:06:35.83    \nframe=  146 fps=0.4 q=27.7 size=    7168KiB time=00:00:04.80 bitrate=12233.5kbits/s speed=0.0121x elapsed=0:06:36.37    \nframe=  147 fps=0.4 q=24.8 size=    7168KiB time=00:00:04.83 bitrate=12149.1kbits/s speed=0.0122x elapsed=0:06:36.92    \nframe=  147 fps=0.4 q=24.8 size=    7168KiB time=00:00:04.83 bitrate=12149.1kbits/s speed=0.0122x elapsed=0:06:37.44    \nframe=  147 fps=0.4 q=24.8 size=    7168KiB time=00:00:04.83 bitrate=12149.1kbits/s speed=0.0121x elapsed=0:06:37.95    \nframe=  147 fps=0.4 q=24.8 size=    7168KiB time=00:00:04.83 bitrate=12149.1kbits/s speed=0.0121x elapsed=0:06:38.46    \nframe=  147 fps=0.4 q=24.8 size=    7168KiB time=00:00:04.83 bitrate=12149.1kbits/s speed=0.0121x elapsed=0:06:38.99    \nframe=  147 fps=0.4 q=24.8 size=    7168KiB time=00:00:04.83 bitrate=12149.1kbits/s speed=0.0121x elapsed=0:06:39.51    \nframe=  147 fps=0.4 q=24.8 size=    7168KiB time=00:00:04.83 bitrate=12149.1kbits/s speed=0.0121x elapsed=0:06:40.02    \nframe=  148 fps=0.4 q=24.6 size=    7168KiB time=00:00:04.86 bitrate=12065.9kbits/s speed=0.0121x elapsed=0:06:40.55    \nframe=  148 fps=0.4 q=24.6 size=    7168KiB time=00:00:04.86 bitrate=12065.9kbits/s speed=0.0121x elapsed=0:06:41.08    \nframe=  149 fps=0.4 q=27.6 size=    7168KiB time=00:00:04.90 bitrate=11983.8kbits/s speed=0.0122x elapsed=0:06:41.63    \nframe=  149 fps=0.4 q=27.6 size=    7168KiB time=00:00:04.90 bitrate=11983.8kbits/s speed=0.0122x elapsed=0:06:42.20    \n[mp4 @ 00000249102baa80] Starting second pass: moving the moov atom to the beginning of the file\n[out#0/mp4 @ 00000249102c1800] video:7304KiB audio:0KiB subtitle:0KiB other streams:0KiB global headers:2KiB muxing overhead: 0.072027%\nframe=  150 fps=0.4 q=27.4 Lsize=    7309KiB time=00:00:04.93 bitrate=12137.1kbits/s speed=0.0123x elapsed=0:06:42.54    \nx265 [info]: frame I:      1, Avg QP:20.58  kb/s: 43344.00\nx265 [info]: frame P:     38, Avg QP:20.25  kb/s: 34254.99\nx265 [info]: frame B:    111, Avg QP:25.62  kb/s: 4052.44 \nx265 [info]: Weighted P-Frames: Y:39.5% UV:34.2%\n\nencoded 150 frames in 402.31s (0.37 fps), 11965.70 kb/s, Avg QP:24.22\n",
  "seconds": 403.6997618675232,
  "probe_out": {}
}